<?xml version="1.0" encoding="UTF-8"?>
<svg xmlns="http://www.w3.org/2000/svg" version="1.1" xmlns:xlink="http://www.w3.org/1999/xlink" viewBox="0 0 416 500">
  <defs>
    <style>
      .cls-1 {
        fill: #4292b2;
      }

      .cls-2 {
        fill: #fff;
      }

      .cls-3 {
        fill: #ec7c86;
      }

      .cls-4 {
        fill: none;
      }

      .cls-5 {
        fill: #84ceee;
      }

      .cls-6 {
        fill: #003146;
      }

      .cls-7 {
        fill: #084965;
      }

      .cls-8 {
        fill: #4399bc;
      }

      .cls-9 {
        fill: #054762;
      }

      .cls-10 {
        fill: #a0d8f0;
      }

      .cls-11 {
        fill: #0c7cab;
      }

      .cls-12 {
        fill: #040000;
      }

      .cls-13 {
        fill: #33a2dc;
      }

      .cls-14 {
        fill: #1276a3;
      }

      .cls-15 {
        clip-path: url(#clippath);
      }

      .cls-16 {
        fill: #66b5d2;
      }
    </style>
    <clipPath id="clippath">
      <rect class="cls-4" width="416" height="500"/>
    </clipPath>
  </defs>
  <!-- Generator: Adobe Illustrator 28.6.0, SVG Export Plug-In . SVG Version: 1.2.0 Build 709)  -->
  <g>
    <g id="_레이어_2">
      <g id="_레이어_1-2">
        <g class="cls-15">
          <g>
            <path class="cls-13" d="M96.4,395.9c23.6,7.2,124.5,34.9,125.5,35.1l-12.8,46.9c-4.2-1.1-21.1,3.8-120.4-27.7"/>
            <path class="cls-7" d="M210.2,479.9l-1.6-.4c-.5-.1-1.5-.2-2.9-.2-8.4-.2-33.8-1-117.6-27.5l1-3.1c83.4,26.4,108.5,27.1,116.8,27.4.8,0,1.4,0,2,0l12-43.9c-13.4-3.7-101.9-28-123.9-34.7l.9-3.1c23.3,7.1,121.2,34,125.4,35.1l1.6.4-.4,1.6-13.2,48.4h0Z"/>
            <ellipse class="cls-14" cx="94.9" cy="426.8" rx="24.3" ry="8.5" transform="translate(-342.2 419.7) rotate(-76.5)"/>
            <path class="cls-7" d="M90,452.1c-.4,0-.8,0-1.1-.1-2.1-.5-4.7-2.6-5.4-9.8-.5-5,0-11.4,1.6-17.9,2.9-12.2,9.5-24.4,15.9-22.9,6.4,1.5,6.7,15.4,3.8,27.6-1.6,6.5-3.9,12.4-6.7,16.7-3.2,5.1-6.1,6.4-8.1,6.4h0ZM99.9,404.6c-2.9,0-8.5,7.4-11.6,20.5-1.5,6.1-2,12.1-1.6,16.8.5,4.7,1.8,6.7,3,6.9,1.1.3,3.2-.9,5.8-4.8,2.5-4,4.8-9.5,6.2-15.7,3.3-13.7,1.4-23-1.4-23.7-.1,0-.2,0-.4,0h0Z"/>
            <path class="cls-10" d="M89.6,434.3s2.5,2.5,10.1,4.9c1.3-3.1,2.6-6.7,3.5-10.5,1.5-6.1,2-11.9,1.7-16.4-3.9-.6-8.2-1.4-9.9-2-3.4-1.3-5.3,24-5.3,24Z"/>
            <path class="cls-1" d="M100.6,441.3l-1.4-.5c-7.8-2.5-10.5-5-10.8-5.3l-.5-.5v-.7c0,0,.5-5.6,1.3-11.3,1.5-10.7,2.9-13,4.2-13.8.7-.4,1.4-.5,2.1-.2.7.3,3,.9,9.6,1.9l1.3.2v1.3c.4,4.9-.2,10.8-1.6,16.9-.9,3.9-2.1,7.5-3.6,10.8l-.6,1.3h0ZM91.3,433.6c1,.7,3.2,2.1,7.6,3.6,1.1-2.8,2.1-5.7,2.8-8.9,1.2-5.2,1.8-10.3,1.7-14.6-4-.6-6.8-1.2-8.4-1.7-1.4,2.2-2.9,12.4-3.7,21.5h0Z"/>
            <path class="cls-9" d="M101,401.5c6.4,1.5,6.7,15.4,3.8,27.6-1.6,6.5-3.9,12.4-6.7,16.7l-2.7-1.8c2.5-4,4.8-9.5,6.2-15.7,3.3-13.7,1.4-23-1.4-23.7l.8-3.1h0Z"/>
            <path class="cls-13" d="M250.5,407.5c9.5.8,18.8,2,28,3.6,14.4,2.6,23.3,13,24.3,23.4,2.4,24.9,8,47,14.5,66.7,1.7,5-1.5,9.5-8.2,11.6-12.9,4-25.7,8.8-38.4,14.1-12.8,5.2-25.5,10.9-38.4,16.5-6.7,3-15.6.6-21.2-6.7-21.6-27.8-31.7-65.1-23.3-102.4,3.4-16,19.1-27.9,34.2-27.9,9.6-.1,19.2.2,28.7,1h0Z"/>
            <path class="cls-7" d="M220.8,545.6c-4.2-1.3-8.2-4-11.2-7.8-11-14.2-19.1-30.9-23.2-48.3-4.4-18.5-4.6-37.2-.4-55.5,1.7-8,6.5-15.5,13.4-21,6.8-5.4,14.8-8.3,22.6-8.3,9.6-.1,19.3.2,28.8,1,9.4.8,18.9,2,28.1,3.6,14,2.6,24.6,12.9,25.8,25.1,2.1,21.7,6.8,43.4,14.4,66.2.8,2.5.7,5.1-.5,7.3-1.5,3-4.6,5.3-9,6.7-11.7,3.6-24.2,8.2-38.2,14.1-11.2,4.6-22.6,9.6-33.7,14.4l-4.7,2.1c-3.8,1.7-8.1,1.8-12.2.6h0ZM281.9,413.7c-1.2-.4-2.4-.6-3.7-.9-9.1-1.6-18.5-2.8-27.8-3.5h0c-9.4-.8-19-1.1-28.5-1-14.7,0-29.3,11.8-32.4,26.4-7.9,35.1.5,71.8,23,100.8,4.9,6.3,12.9,8.9,19,6.1l4.7-2.1c11.1-4.9,22.5-9.9,33.8-14.5,14.1-5.9,26.7-10.5,38.5-14.2,3.3-1.1,5.8-2.8,6.8-4.8.7-1.4.8-2.9.2-4.5-7.7-23.1-12.5-45.1-14.6-67.1-.8-7.9-7-17.3-19.1-20.9h0Z"/>
            <path class="cls-10" d="M183.2,205.8c-22.8,2.5-45.1,10.3-61.6,27-26.3,26.7-30.5,62.5-31.1,81.5-.7,19,0,29.7,0,29.7,0,0-16,12.4-8.8,36.9s26.8,35.9,48.9,44.1c22.1,8.2,56.5,13.6,103.7,9.6s79.2-23.9,89.5-39.5c10.2-15.7,12.6-36.4-5.4-53,0,0,2.9-43-9.1-71.6-9.4-22.3-23.6-41.9-45.3-53.5-10.4-5.6-21.5-7.9-33-9.7-12.2-1.9-24.7-2.8-37.1-2.3-3.6.1-7.1.4-10.7.8h0Z"/>
            <path class="cls-1" d="M203.4,437.6c-35.2,0-58.8-5.7-73.3-11.1-20.4-7.6-42.2-18.9-49.9-45.2-3.8-13.1-1.1-22.9,1.8-28.8,2.5-5,5.6-8,6.9-9.2-.1-2.9-.5-13.1,0-29,.5-13.7,2.5-26.6,6-38.3,5.3-17.5,13.9-32.4,25.6-44.3,15.1-15.3,36.1-24.6,62.5-27.5h0c3.5-.4,7.2-.7,10.8-.8,11.8-.5,24,.3,37.4,2.3,11.1,1.7,22.8,4.1,33.6,9.9,19.9,10.7,35.4,28.9,46,54.3,11.3,26.9,9.6,65.5,9.3,71.5,8.3,7.9,12.8,17.2,13.2,27.5.4,9-2.5,18.4-8.1,27.1-10.9,16.6-43.9,36.3-90.7,40.2-11.2.9-21.6,1.4-31.1,1.4h0ZM183.4,207.4h0c-25.7,2.8-46,11.8-60.6,26.5-18.9,19.2-29.5,47-30.7,80.4-.7,18.7,0,29.4,0,29.5v.9c0,0-.6.5-.6.5,0,0-3.8,3-6.7,8.9-3.9,7.8-4.4,16.6-1.6,26.3,7.3,24.9,28.3,35.8,47.9,43.1,14.3,5.3,37.5,10.9,72.2,10.9s19.7-.4,30.8-1.3c45.7-3.8,77.8-22.8,88.3-38.8,11.8-18,9.9-37.1-5.1-51l-.6-.5v-.8c0-.4,2.8-42.9-9-70.9-10.4-24.7-25.4-42.4-44.6-52.7-10.3-5.5-21.7-7.8-32.5-9.5-13.1-2-25.1-2.8-36.7-2.3-3.6.1-7.2.4-10.6.8h0Z"/>
            <ellipse class="cls-5" cx="105.7" cy="370.5" rx="21.8" ry="16.6"/>
            <ellipse class="cls-2" cx="94.4" cy="361.3" rx="2.5" ry="1.9"/>
            <ellipse class="cls-5" cx="221.7" cy="370.5" rx="21.8" ry="16.6"/>
            <ellipse class="cls-2" cx="210.7" cy="361.3" rx="2.5" ry="1.9"/>
            <ellipse class="cls-6" cx="194.6" cy="339.7" rx="10.1" ry="13.2"/>
            <path class="cls-11" d="M184.6,300.6c.7,0,1.4-.2,2-.7,9.1-7.3,20.3-4.6,20.4-4.6,1.7.4,3.5-.6,3.9-2.4.4-1.7-.6-3.5-2.3-3.9-.6-.1-14.3-3.5-26,5.8-1.4,1.1-1.6,3.1-.5,4.5.6.8,1.6,1.2,2.5,1.2h0Z"/>
            <ellipse class="cls-6" cx="132.6" cy="339.7" rx="10.1" ry="13.2"/>
            <path class="cls-11" d="M144.2,300.6c.9,0,1.9-.4,2.5-1.2,1.1-1.4.9-3.4-.5-4.5-11.7-9.4-25.4-6-26-5.8-1.7.5-2.8,2.2-2.3,3.9.4,1.7,2.2,2.8,3.9,2.3.2,0,11.2-2.7,20.4,4.6.6.5,1.3.7,2,.7h0Z"/>
            <path class="cls-12" d="M185,390.5c2.1-4.3,3.4-11.3.3-15.7-1.8-2.5-3.9-2.8-6.2-2.2-2.9,6.6-9.7,11.3-17.7,11.3s-14.9-4.7-17.7-11.4c-2.1-.5-4-.1-5.8,2.3-3.2,4.4-1.8,11.4.3,15.7,1.5,3.2,3.5,5.6,5.6,7.5,3.8-5.7,10.3-9.4,17.6-9.4s13.9,3.8,17.7,9.6c2.2-1.9,4.2-4.3,5.8-7.6h0Z"/>
            <path class="cls-3" d="M161.4,388.6c-7.3,0-13.8,3.7-17.6,9.4,5.2,4.4,11.8,5.4,17.8,5.4s12.4-.9,17.5-5.2c-3.8-5.8-10.3-9.6-17.7-9.6h0Z"/>
            <path class="cls-2" d="M161.4,383.9c8,0,14.8-4.7,17.7-11.3-1.7.4-3.5,1.3-5.5,2.1-3.2,1.2-7.5,1.6-12,1.6-4.4,0-8.8-.4-12-1.6-2.2-.8-4.1-1.8-5.9-2.2,2.9,6.7,9.7,11.4,17.7,11.4h0Z"/>
            <path class="cls-16" d="M93.1,290.1s21-62,68.8-55.7c47.8,6.3,59.7,10.1,88.4-4.9,0,0,24.1,7.5,43.9,42.2,1,1.8,9.6-3,10.6-1.1s-5.6,10.6-4.7,12.7c5.9,12.9,11.1,28.6,14.6,48h4c0-14.6-1.1-41.1-9.4-60.8-9.4-22.3-23.6-41.9-45.3-53.5-10.4-5.6-21.5-7.9-33-9.7-12.2-1.9-24.7-2.8-37.1-2.3-3.6.1-7.1.4-10.7.8-22.8,2.5-45.1,10.3-61.6,27-17.3,17.6-25.1,39.2-28.5,57.3h0Z"/>
            <path class="cls-5" d="M156.8,359.4c-.5,0-.9-.3-1.1-.7-.2-.5,0-1.2.4-1.5l7.2-4.9-21,5c-.6.1-1.3-.2-1.5-.9-.1-.6.2-1.3.9-1.5l27.4-6.5c.6-.1,1.1.2,1.4.7.2.5,0,1.2-.4,1.5l-7.4,5.1,20.4-4.6c.6-.1,1.3.3,1.4.9.1.6-.3,1.3-.9,1.5l-26.6,5.9c0,0-.2,0-.3,0h0Z"/>
            <path class="cls-8" d="M203.4,437.6c-35.2,0-58.8-5.7-73.3-11.1-20.4-7.6-42.2-18.9-49.9-45.2-3.8-13.1-1.1-22.9,1.8-28.8,2.5-5,5.6-8,6.9-9.2-.1-2.9-.5-13.1,0-29,.5-13.7,2.5-26.6,6-38.3,5.3-17.5,13.9-32.4,25.6-44.3,15.1-15.3,36.1-24.6,62.5-27.5,3.5-.4,7.2-.7,10.8-.8,11.8-.5,24,.3,37.4,2.3,11.1,1.7,22.8,4.1,33.6,9.9,19.9,10.7,35.4,28.9,46,54.3,11.3,26.9,9.6,65.5,9.3,71.5,8.3,7.9,12.8,17.2,13.2,27.5.4,9-2.5,18.4-8.1,27.1-10.9,16.6-43.9,36.3-90.7,40.2-11.2.9-21.6,1.4-31.1,1.4h0ZM200.8,206.4c-2.3,0-4.6,0-6.8.1-3.6.1-7.2.4-10.6.8h0c-25.7,2.8-46,11.8-60.6,26.5-18.9,19.2-29.5,47-30.7,80.4-.7,18.7,0,29.4,0,29.5v.9c0,0-.6.5-.6.5,0,0-3.8,3-6.7,8.9-3.9,7.8-4.4,16.6-1.6,26.3,7.3,24.9,28.3,35.8,47.9,43.1,14.3,5.3,37.5,10.9,72.2,10.9s19.7-.4,30.8-1.3c45.7-3.8,77.8-22.8,88.3-38.8,11.8-18,9.9-37.1-5.1-51l-.6-.5v-.8c0-.4,2.8-42.9-9-70.9-10.4-24.7-25.4-42.4-44.6-52.7-9.8-5.2-20.1-7.6-32.5-9.5-10.6-1.6-20.4-2.4-29.9-2.4h0Z"/>
            <path class="cls-11" d="M171.3,210.6s38-7.1,34.4-37.5c0,0,27.8,3.2,33.4,28.1,5.7,24.8-30.7,30.9-44.1,25.1,0,0,17.6-8.2,19.7-20,0,0-20.8,10.7-43.4,4.3h0Z"/>
            <path class="cls-10" d="M305.4,333s37.7-5.5,60.1-20.4c4-2.7,9.3.6,8.7,5.4-2.3,18.1-12.4,49.3-54.5,55.4"/>
            <path class="cls-1" d="M319.7,374.9c-.8,0-1.5-.6-1.6-1.4-.1-.9.5-1.7,1.4-1.8,41-5.9,50.9-36.3,53.1-54,.2-1.6-.5-3-1.9-3.9-1.4-.9-3-.8-4.4,0-22.5,14.9-59.2,20.4-60.8,20.7-.9.1-1.7-.5-1.8-1.4-.1-.9.5-1.7,1.4-1.8.4,0,37.6-5.6,59.5-20.2,2.4-1.6,5.4-1.6,7.8-.1,2.4,1.5,3.7,4.2,3.4,7-2.3,18.5-12.7,50.5-55.8,56.8,0,0-.2,0-.2,0h0Z"/>
            <path class="cls-13" d="M314,339.2c12.2-2.6,33.1-7.7,46.7-14.5,1.9-.9,4,.8,3.4,2.8-1.7,5.8-4.3,12.1-8.6,17.8-6.5,8.7-19.9,15.5-32.2,18.9-1.7.5-3.4-.6-3.7-2.3-1.4-6.7-3.9-12.7-7.4-18.1-1.1-1.8-.2-4.1,1.9-4.6h0Z"/>
            <path class="cls-13" d="M259,453l-19.8,93c-.6,3.1,1.6,6,4.8,6.1,11.7.3,23.8,3.3,36,7.6,2.9,1,6-.8,6.6-3.8l7.9-34.3c1-4.2,2-8.1,2.4-10l11.5-57.9c2.6-13.2-5.9-26-19-28.6"/>
            <path class="cls-7" d="M281.7,561.7c-.7,0-1.5-.1-2.2-.4-13.8-4.8-25.1-7.2-35.5-7.5-2,0-3.8-1-5-2.5-1.2-1.6-1.7-3.6-1.3-5.5l19.8-93,3.2.7-19.8,93c-.2,1,0,2,.7,2.9.6.8,1.6,1.3,2.6,1.3,10.8.3,22.4,2.8,36.5,7.7,1,.3,2,.2,2.9-.3.9-.5,1.5-1.3,1.7-2.3l7.9-34.3.6-2.4c.8-3.2,1.5-6,1.8-7.6l11.5-57.9c1.2-5.9,0-12-3.4-17-3.4-5-8.5-8.5-14.4-9.6l.6-3.2c6.8,1.4,12.6,5.3,16.5,11s5.2,12.7,3.9,19.5l-11.5,57.9c-.3,1.6-1,4.4-1.8,7.7l-.6,2.4-7.9,34.3c-.4,1.9-1.6,3.5-3.2,4.4-1,.6-2.2.9-3.3.9h0Z"/>
            <path class="cls-10" d="M85,394.3c-3.3-.9-6.4-2.2-9.4-3.7-6.5-3.4-13.9-7.4-17.7-10.2-3.6-2.7-8.7-2-11.4,1.6-2.7,3.6-1.8,8.8,1.8,11.5,3,2.2,7.2,4.8,11.5,7.2,1.3.7,1.7,2.4,1,3.6-2.2,3.7-3.3,8-3,12.7.8,10.6,9.3,19.2,19.9,20,12.7.9,23.3-9.1,23.3-21.6s-6.8-18.5-16.1-20.9h0Z"/>
            <path class="cls-1" d="M79.5,438.5c-.6,0-1.2,0-1.8,0-11.4-.9-20.6-10.1-21.4-21.5-.3-4.8.8-9.5,3.2-13.6.1-.2.2-.5.1-.8s-.2-.5-.5-.6c-5.1-2.8-9-5.3-11.7-7.3-2.1-1.6-3.5-4-3.9-6.6-.4-2.6.3-5.1,1.8-7.1,1.6-2.1,3.8-3.4,6.4-3.8,2.6-.4,5.1.3,7.2,1.9,3.9,2.9,11.6,7.1,17.4,10.1,3.2,1.7,6.2,2.8,9.1,3.6h0c10.2,2.7,17.3,12,17.3,22.5s-2.7,12.7-7.4,17.1c-4.3,4-9.9,6.2-15.8,6.2h0ZM53,380.3c-.3,0-.6,0-.9,0-1.7.2-3.2,1.1-4.3,2.5-1,1.3-1.4,3-1.2,4.7.3,1.8,1.2,3.4,2.6,4.5,2.6,1.9,6.4,4.3,11.3,7,1,.6,1.7,1.5,2,2.6.3,1.1.1,2.3-.5,3.3-2.1,3.5-3,7.6-2.8,11.7.7,9.8,8.6,17.8,18.4,18.5,5.6.4,11-1.5,15.1-5.3,4.1-3.8,6.4-9.1,6.4-14.7,0-9.1-6.1-17-14.9-19.4-3.1-.8-6.3-2.1-9.8-3.9-5.9-3-13.8-7.3-17.9-10.4-1.1-.9-2.5-1.3-3.9-1.3h0Z"/>
            <path class="cls-10" d="M82.4,423c-4.2,1.5-8.9-1-10-5.4-1.1-4,1.3-8,5.1-9.4l3.6-1.3c1.9-.6,3.2-2.3,3.5-4.3l.3-2.3"/>
            <path class="cls-1" d="M79.9,425c-1.5,0-3.1-.4-4.4-1.1-2.3-1.2-4-3.3-4.7-5.9-1.3-4.7,1.4-9.7,6.2-11.3l3.6-1.3c1.3-.5,2.3-1.6,2.4-3l.3-2.3c.1-.9.9-1.5,1.8-1.4.9.1,1.5.9,1.4,1.8l-.3,2.3c-.3,2.6-2.1,4.8-4.6,5.6l-3.6,1.3c-3.1,1.1-4.9,4.4-4.1,7.5.4,1.7,1.5,3,3.1,3.9,1.5.8,3.3,1,4.9.4.8-.3,1.8.2,2.1,1,.3.9-.2,1.8-1,2.1-1,.3-2,.5-3.1.5Z"/>
          </g>
        </g>
      </g>
    </g>
  </g>
</svg>