<?xml version="1.0" encoding="UTF-8"?>
<svg xmlns="http://www.w3.org/2000/svg" version="1.1" xmlns:xlink="http://www.w3.org/1999/xlink" viewBox="0 0 416 500">
  <defs>
    <style>
      .cls-1 {
        fill: #cf4a84;
      }

      .cls-2 {
        fill: #f4bad3;
      }

      .cls-3 {
        fill: #fff;
      }

      .cls-4 {
        fill: #ec7c86;
      }

      .cls-5 {
        fill: #a83d6f;
      }

      .cls-6 {
        fill: none;
      }

      .cls-7 {
        fill: #61183c;
      }

      .cls-8 {
        fill: #d25c92;
      }

      .cls-9 {
        fill: #871e57;
      }

      .cls-10 {
        fill: #e685b1;
      }

      .cls-11 {
        fill: #ca6a95;
      }

      .cls-12 {
        fill: #ec81b0;
      }

      .cls-13 {
        clip-path: url(#clippath);
      }

      .cls-14 {
        fill: #f1a4c5;
      }
    </style>
    <clipPath id="clippath">
      <rect class="cls-6" x="0" width="416" height="500"/>
    </clipPath>
  </defs>
  <!-- Generator: Adobe Illustrator 28.6.0, SVG Export Plug-In . SVG Version: 1.2.0 Build 709)  -->
  <g>
    <g id="_레이어_2">
      <g id="_레이어_1-2">
        <g class="cls-13">
          <g>
            <path class="cls-2" d="M241.1,218.7c0-6,2.4-11.4,6.5-15.1l-3.3-8.4c-4.2-10.6-13-18.7-23.8-22.2-10.8-3.6-20.9-9.9-29-19-25.3-28.4-22.1-72.4,7.7-96.7,26.6-21.7,65.9-19.5,90,5,23.3,23.8,25.2,60,6.9,85.8-4.5,6.4-13.9,6.9-19.1,1.1l-.4-.4c-3.5-3.9-4-9.6-1.4-14.3,5.4-9.8,4.1-22.5-4.4-30.9-9.1-9-23.9-9.9-34-1.9-11.8,9.3-13.1,26.5-3.3,37.5.6.6,1.2,1.3,1.8,1.9,14.7,13.5,25.3,30.9,29.2,50.5l1.5,7.4c8.7,2.1,15.3,9.9,15.4,19.3.2,11.1-8.7,20.3-19.8,20.4-11.1.2-20.2-8.7-20.4-19.9h0Z"/>
            <path class="cls-11" d="M293.7,64.6c20.3,23.8,22.1,58.5,3.8,84.3-2.5,3.5-6.3,5.6-10.6,5.9-4.3.2-8.4-1.4-11.2-4.6l-.4-.4c-3.9-4.4-4.6-10.9-1.6-16.2,5.2-9.4,3.5-21.3-4.1-28.9-8.6-8.5-22.2-9.3-31.7-1.8-5.3,4.2-8.5,10.2-9.1,16.8-.6,6.7,1.5,13.1,6,18.1.5.6,1.1,1.2,1.7,1.7,15.6,14.3,25.9,32.1,29.7,51.4l1.3,6.4c9.1,2.7,15.5,11,15.7,20.7,0,5.8-2.1,11.4-6.2,15.6-4.1,4.2-9.5,6.6-15.4,6.6-12,.2-22-9.5-22.2-21.6h0c0-5.8,2.1-11.4,6.2-15.6l-2.9-7.3c-3.9-10-12.2-17.8-22.7-21.2-11.4-3.7-21.7-10.5-29.7-19.5-12.6-14.1-18.8-32.3-17.3-51.3,1.5-18.9,10.4-35.9,25.1-48,13.2-10.8,30-16.2,47.1-15.2,17.2,1,33.2,8.2,45.1,20.4,1.1,1.2,2.2,2.4,3.3,3.6h0ZM277.6,147.3c0,0,.1.1.2.2l.4.4c2.1,2.4,5.2,3.7,8.5,3.5,3.2-.2,6.1-1.8,8-4.4,18.2-25.8,15.4-60.9-6.7-83.6-23.3-23.8-61.8-26-87.6-4.9-14,11.4-22.5,27.6-23.9,45.5-1.4,18,4.4,35.3,16.4,48.7,7.6,8.6,17.4,15,28.2,18.5,11.5,3.8,20.6,12.2,24.9,23.2l3.7,9.5-.9.8c-3.8,3.6-6,8.6-5.9,13.8h0c.1,10.2,8.5,18.3,18.7,18.2,4.9,0,9.5-2.1,12.9-5.6,3.4-3.5,5.3-8.2,5.2-13.1-.1-8.4-5.9-15.7-14.1-17.7l-1.1-.3-1.7-8.5c-3.7-18.6-13.6-35.7-28.7-49.6-.7-.6-1.3-1.3-2-2-5-5.6-7.5-13.2-6.9-20.7.7-7.6,4.4-14.5,10.4-19.2,5.2-4.1,11.8-6.2,18.5-5.8s13,3.2,17.7,7.8c8.8,8.7,10.7,22.2,4.7,33-2.2,4-1.8,8.8,1,12.1h0Z"/>
            <ellipse class="cls-10" cx="262.1" cy="219" rx="10.3" ry="10.3"/>
            <path class="cls-12" d="M346.5,313.2c-21.2,15.5-112.9,78.4-113.8,79l29.1,42.6c3.8-2.6,22.5-3.5,111.4-69.7"/>
            <path class="cls-1" d="M261.4,437.3l-31.1-45.5,1.5-1c3.8-2.6,93-63.8,113.7-78.9l2,2.8c-19.6,14.3-98.2,68.3-112.5,78l27.3,40c.5-.2,1.2-.5,2-.8,8.2-3.1,33.2-12.6,107.8-68.1l2,2.8c-75,55.8-100.3,65.4-108.6,68.6-1.4.5-2.4.9-2.8,1.2l-1.4,1h0Z"/>
            <ellipse class="cls-1" cx="358.7" cy="343.8" rx="9" ry="25.9" transform="translate(-128.6 246.8) rotate(-32.5)"/>
            <path class="cls-1" d="M370.7,367.9c-6.1,0-14.9-8.6-21-18.3-3.8-6-6.6-12.2-7.8-17.4-1.8-7.5.1-10.5,2.1-11.7,1.9-1.2,5.5-1.7,11.5,3,4.2,3.3,8.6,8.4,12.5,14.4,3.8,6,6.6,12.2,7.8,17.4,1.8,7.5-.1,10.5-2.1,11.7-.9.5-1.8.8-2.9.8ZM346.8,323.1c-.5,0-.8.1-1.1.3-1,.7-1.7,3.1-.6,8,1.1,4.9,3.8,10.7,7.4,16.3,7.1,11.1,14.6,16.7,18,16.7s.8-.1,1.1-.3c1-.7,1.7-3.1.6-8-1.1-4.9-3.8-10.7-7.4-16.3-3.6-5.7-7.8-10.5-11.7-13.6-2.9-2.3-5.1-3.1-6.4-3.1h0Z"/>
            <path class="cls-2" d="M366.7,349.5s-1.6,3.3-8.5,8.5c-2.4-2.6-4.9-5.8-7.1-9.4-3.6-5.6-6.1-11.2-7.4-15.9,3.7-2,7.8-4.2,9.3-5.5,3-2.5,13.7,22.2,13.7,22.2h0Z"/>
            <path class="cls-11" d="M358,360.4l-1.1-1.1c-2.6-2.8-5.1-6-7.3-9.6-3.5-5.5-6.2-11.4-7.6-16.4l-.4-1.3,1.2-.6c6.3-3.4,8.4-4.8,9-5.3.6-.5,1.4-.7,2.2-.5,1.5.4,3.8,2.1,9,12.4,2.8,5.5,5.1,10.9,5.1,10.9l.3.7-.4.7c-.2.4-2,3.8-9,9.1l-1.2.9h0ZM345.8,333.7c1.4,4.4,3.7,9.3,6.8,14.1,1.9,2.9,3.8,5.6,5.9,8,3.8-3,5.6-5.3,6.3-6.3-3.9-8.9-9-18.6-11.2-20.3-1.4,1-4,2.6-7.8,4.6h0Z"/>
            <path class="cls-1" d="M345.7,323.4c-2.6,1.6-1.2,11.7,6.8,24.3,3.6,5.7,7.8,10.5,11.7,13.6l-2.1,2.7c-4.2-3.3-8.6-8.4-12.5-14.4-7.2-11.3-11.7-25.3-5.8-29.1l1.9,2.9h0Z"/>
            <path class="cls-12" d="M203.2,375.9c-8.8,1.1-17.5,2.6-25.9,4.4-13.3,3-21.2,13-21.7,22.8-1.2,23.3-9.8,77-15.2,95.6-1.4,4.8,1.8,8.8,8.1,10.5,12.2,3.2,42.2,2.4,42.2,2.4,0,0,35.4-.9,51.7-2.6,6.8-.7,12.1-7.1,17-14.1,19-26.8,12.7-62,3.4-96.4-3.8-14.8-18.9-25.3-33-24.6-9,.3-17.9,1-26.7,2h0Z"/>
            <path class="cls-1" d="M182.7,513.4c-9.9,0-26.2-.4-34.6-2.6-4.1-1.1-7.1-3.1-8.6-5.9-1.1-2-1.4-4.4-.7-6.8,5.4-18.8,13.9-72.1,15.1-95.2.6-11.4,10.1-21.5,23.1-24.4,8.6-1.9,17.4-3.4,26.1-4.4h0c8.9-1.1,17.9-1.8,26.9-2,7.3-.3,14.9,2.1,21.4,6.9,6.6,4.9,11.4,11.6,13.3,19.1,4.2,15.6,8.6,34,9,51.5.4,18.7-3.7,33.8-12.6,46.4-4.8,6.8-10.5,14-18.3,14.8-16.2,1.6-51.5,2.6-51.9,2.6-.4,0-3.5,0-8.1,0h0ZM231.2,375.5c-.4,0-.8,0-1.2,0-8.9.3-17.8,1-26.6,2h0c-8.6,1.1-17.3,2.5-25.8,4.4-13.4,3-20,13.1-20.4,21.2-1.2,23.2-9.8,77-15.2,96-.4,1.5-.3,2.9.4,4.2,1.1,1.9,3.4,3.4,6.5,4.2,11.8,3.1,41.4,2.4,41.7,2.4.4,0,35.5-1,51.6-2.6,6.3-.6,11.5-7.2,15.8-13.4,19.2-27,11.7-63.2,3.1-95-3.4-13.1-16.7-23.4-30-23.4h0Z"/>
            <path class="cls-2" d="M169.4,191.6c22.2-5.1,45.6-5,66.3,5.3,33.2,16.5,42.9,34.5,49.7,52.1,6.8,17.6,10.4,20.5,10.4,20.5,0,0,18.1,13.7,19.4,38.9,1.2,25.2-13.5,42.3-31.5,57.2-18,14.9-48.5,31-94,42.6s-79.6-7.8-94.2-19.1c-14.6-11.3-23.6-30-12.1-51.4,0,0-13.1-14-11.1-44.6,1.6-23.9,8.6-46.9,25.1-64.8,7.9-8.6,17.6-14.4,27.8-19.8,10.9-5.7,22.2-10.6,33.9-14.2,3.4-1,6.8-1.9,10.3-2.7h0Z"/>
            <path class="cls-11" d="M161.9,413.5c-33.2,0-57.2-15.2-67.3-23-8.2-6.3-13.9-14.2-16.4-22.8-2.9-9.7-1.8-19.7,3.3-29.7-2.9-3.7-12.6-18-10.8-45,1.8-27.2,10.4-49.4,25.6-65.8,8.2-8.9,18.4-14.9,28.2-20.1,11.8-6.2,23-10.9,34.2-14.3,3.5-1.1,7-2,10.4-2.8h0c25.7-5.9,48.4-4,67.5,5.4,15.4,7.6,26.9,16.1,35.3,26.1,7.8,9.2,11.9,18.4,15.2,26.9,6.1,15.9,9.6,19.5,9.9,19.8,1.4,1,18.8,14.9,20,40.1,1.3,27.2-15.5,44.9-32.1,58.6-15.1,12.4-43.7,30-94.6,43-10,2.6-19.5,3.6-28.3,3.6h0ZM169.8,193.3c-3.3.8-6.8,1.7-10.2,2.7-11,3.3-22,7.9-33.6,14.1-9.6,5.1-19.5,10.9-27.3,19.4-14.6,15.9-22.9,37.3-24.6,63.7-1.9,29.6,10.5,43.2,10.6,43.4l.9.9-.6,1.1c-9.5,17.8-5.1,36.2,11.7,49.2,12.4,9.6,46.3,30.7,92.7,18.8,50.3-12.8,78.5-30.1,93.3-42.3,16-13.2,32.1-30.1,30.9-55.8-1.2-24.1-18.5-37.5-18.7-37.6h0c-.4-.4-4.2-3.7-11-21.3-6.5-16.8-15.6-34.6-48.9-51.1-18.4-9.1-40.3-10.9-65.2-5.2h0ZM297,268.2h0s0,0,0,0h0Z"/>
            <ellipse class="cls-14" cx="174.9" cy="361.8" rx="16.5" ry="16.4" transform="translate(-141.7 114.2) rotate(-26.2)"/>
            <ellipse class="cls-3" cx="165.4" cy="355.5" rx="2.5" ry="1.9" transform="translate(-107.7 74.1) rotate(-19.2)"/>
            <path class="cls-11" d="M177.8,270c-.4.6-1,1-1.8,1.2-11.2,2.9-15.8,13.2-15.8,13.3-.7,1.6-2.6,2.4-4.2,1.7-1.6-.7-2.4-2.6-1.7-4.2.2-.5,5.8-13.4,20.2-17.1,1.7-.4,3.5.6,3.9,2.3.2,1,0,2-.5,2.7h0Z"/>
            <path class="cls-8" d="M146.8,298.7c.7-.1,1.4,0,2.1.4,10,5.9,20.5,1.8,20.6,1.8,1.6-.7,3.5.1,4.2,1.8.7,1.6-.1,3.5-1.8,4.2-.5.2-13.5,5.4-26.3-2.2-1.5-.9-2-2.9-1.1-4.4.5-.9,1.4-1.4,2.3-1.5h0Z"/>
            <path class="cls-8" d="M147.6,313.7c.6-.3,1.4-.4,2.1-.3,11.3,2.4,20-4.9,20.1-5,1.3-1.1,3.4-1,4.5.3,1.1,1.3,1,3.4-.3,4.5-.4.4-11.1,9.5-25.6,6.4-1.7-.4-2.8-2.1-2.5-3.8.2-1,.9-1.8,1.7-2.2h0Z"/>
            <path class="cls-8" d="M289.3,246.1c-.6.4-1,1-1.3,1.7-3.4,11.1-14,15.1-14.1,15.1-1.7.6-2.5,2.5-1.9,4.1.6,1.7,2.4,2.5,4.1,1.9.6-.2,13.7-5,18.1-19.2.5-1.7-.4-3.5-2.1-4-1-.3-2-.1-2.8.4h0Z"/>
            <path class="cls-8" d="M298.7,257.9c-.7.2-1.3.6-1.7,1.2-6.8,9.4-18.1,9.8-18.2,9.8-1.8,0-3.2,1.5-3.1,3.3s1.5,3.2,3.2,3.1c.6,0,14.5-.4,23.3-12.4,1-1.4.7-3.4-.7-4.5-.8-.6-1.8-.8-2.7-.5h0Z"/>
            <ellipse class="cls-7" cx="185.2" cy="311" rx="29.3" ry="29.3"/>
            <ellipse class="cls-3" cx="173.3" cy="299.1" rx="8.1" ry="8.1"/>
            <path class="cls-5" d="M240.3,204.6c-.1-.4-.3-.8-.4-1.2-.2-.5-.4-.9-.6-1.4-8.7-20.5-38-30.4-70.4-24.4,1.1-3.7,1.5-8.6.9-10.7-.4-1.6-2.1-2.5-3.6-2-2.7.9-8.3,5.7-10.2,9.2-.3.5-.5,1-.6,1.6-.4-.4-.9-.7-1.4-.9-3.5-1.9-10.8-2.8-13.6-2-1.6.4-2.5,2.1-1.9,3.7.7,2.1,3.7,5.9,6.7,8.4-30.2,13.1-49.1,37.6-45,59.5,0,.5.2,1,.3,1.5.1.4.2.8.3,1.2,0,.2.1.4.2.7h0c1.6,5,4.6,9.1,8.9,11.4,10.9,5.9,26.2-1.3,34-16,1.7-3.1,2.9-6.4,3.6-9.6.7-3,1-5.9.9-8.8,1.5,2.6,3.4,4.9,5.6,6.8,5.5,4.7,12.8,6.6,19.7,4.5,6.9-2.1,11.9-7.8,13.9-14.7.8-2.8,1.1-5.7.9-8.8,1.5,2.4,3.4,4.7,5.6,6.8,2.4,2.2,5.2,4.3,8.3,6,14.7,7.9,31.3,5.3,37.1-5.7,2.3-4.4,2.6-9.5,1.1-14.5h0c0-.2-.2-.5-.2-.7h0Z"/>
            <path class="cls-11" d="M248.9,243.5c-.9-.3-1.7-1-2-1.9-.6-1.7.2-3.5,1.9-4.1,13.9-5.2,25.8,2.2,26.3,2.5,1.5.9,1.9,2.9,1,4.4-1,1.5-2.9,1.9-4.4,1-.1,0-9.8-6-20.6-1.9-.7.3-1.5.3-2.1,0h0Z"/>
            <path class="cls-9" d="M220.1,357.8c-3.4-3.4-6.9-9.5-5.3-14.6.9-3,2.7-3.9,5.1-4,4.9,5.3,12.7,7.4,20.2,4.8,7.5-2.6,12.4-9.2,12.9-16.4,1.8-1.1,3.7-1.4,6.1.3,4.4,3.1,5.4,10.1,4.8,14.8-.4,3.5-1.4,6.4-2.8,8.8-5.4-4.1-12.6-5.4-19.5-3.1-6.9,2.4-11.8,8.1-13.5,14.7-2.7-1-5.4-2.7-7.9-5.3h0Z"/>
            <path class="cls-4" d="M241.6,348.4c6.9-2.4,14.1-1,19.5,3.1-3.4,5.9-9.3,8.9-14.9,10.8-5.5,1.9-11.9,3.1-18.1.8,1.7-6.6,6.5-12.3,13.5-14.7h0Z"/>
            <path class="cls-3" d="M240.1,344c-7.5,2.6-15.3.4-20.2-4.8,1.7-.1,3.7.1,5.8.1,3.4,0,7.6-.9,11.7-2.4,4.2-1.4,8.1-3.2,10.7-5.4,1.8-1.5,3.3-3,4.8-3.9-.5,7.2-5.4,13.8-12.9,16.4h0Z"/>
            <ellipse class="cls-7" cx="263.2" cy="281.3" rx="29.3" ry="29.3"/>
            <ellipse class="cls-3" cx="251.3" cy="269.4" rx="8.1" ry="8.1"/>
            <path class="cls-2" d="M412.4,317c-2.8-3.2-7.7-3.6-10.9-.8,0,0-1.9,1.6-4.7,3.7-.8.6-2,.2-2.2-.8,0-.3-.2-.6-.2-.9-.1-.5,0-1.1.5-1.5,5.5-4.3,9.5-8,9.7-8.3,3.1-3,3.2-7.9.2-11-3-3.1-7.9-3.2-10.9-.2,0,0-3.6,3.5-8.5,7.2-.4.3-1,.4-1.5.1-.3-.1-.5-.3-.8-.4-.7-.3-1-1.2-.7-1.9,2.6-5.1,4.2-9,4.3-9.3,1.6-4-.3-8.5-4.2-10.1-4-1.6-8.5.3-10.1,4.2,0,.1-4.5,10.9-10.3,19.2-.2.4-.6.6-.9.9h0c-1.6,1-3.7.4-4.4-1.3-.7-1.5-1.3-2.9-1.8-4.4-1.5-4-6-6.3-10-4.8s-6.1,5.9-4.6,9.9c.1.4.3.7.4,1.1,2.6,6.7,4.2,13.8,4.8,21,.7,8.9,10.1,18.2,19.6,20.8,7.5,2,15.2.3,20.9-4.1,1.7-1.3,3.4-2.4,5.3-3.4,10.4-5.6,19.9-13.8,20.3-14.1,3.2-2.8,3.6-7.7.8-10.9h0Z"/>
            <path class="cls-11" d="M371.4,352.2c-2.3,0-4.5-.3-6.8-.9-10.5-2.9-20.1-13.1-20.9-22.3-.6-7-2.1-13.9-4.7-20.5-.1-.4-.3-.8-.4-1.1-1.8-4.9.8-10.3,5.6-12.1,2.3-.9,4.9-.7,7.1.4,2.4,1.1,4.2,3.1,5.1,5.5.5,1.3,1.1,2.8,1.8,4.3.2.5.6.7.8.7.2,0,.7.1,1.1-.2h0c.2-.1.3-.3.4-.4,5.7-8.1,10.1-18.8,10.1-18.9,2-4.8,7.5-7.2,12.3-5.2s7.1,7.5,5.2,12.3c-.2.4-1.7,4.2-4.2,9.1l.4.2c4.7-3.7,8.1-7,8.2-7,3.8-3.6,9.8-3.5,13.4.3,3.6,3.8,3.5,9.8-.3,13.4-.4.4-4.3,4-9.7,8.3,0,0,0,.2,0,.2,2.5-2,4.2-3.4,4.2-3.4,4-3.4,9.9-3,13.3,1h0c3.4,4,3,9.9-1,13.4-.4.4-10.1,8.7-20.6,14.4-1.8,1-3.5,2.1-5,3.2-4.6,3.5-10,5.3-15.6,5.3h0ZM347.4,298.1c-.7,0-1.3.1-2,.3-3.1,1.1-4.7,4.6-3.6,7.7.1.4.3.7.4,1.1,2.6,6.9,4.3,14.1,4.9,21.4.6,7.8,9.2,16.8,18.4,19.3,6.8,1.8,13.8.4,19.4-3.8,1.6-1.3,3.5-2.5,5.5-3.5,10.2-5.5,19.6-13.6,20-13.9,2.5-2.2,2.8-6,.6-8.5s-6-2.8-8.5-.6c0,0-1.9,1.6-4.8,3.8-.8.6-1.9.8-2.9.5s-1.7-1.2-2-2.2c0-.3-.1-.6-.2-.9-.4-1.2,0-2.5,1.1-3.3,5.5-4.3,9.4-8,9.6-8.2,2.4-2.3,2.5-6.1.2-8.5s-6.1-2.5-8.5-.2c0,0-3.7,3.5-8.6,7.4-.9.7-2.2.9-3.3.3-.2-.1-.5-.2-.8-.3-.8-.3-1.4-1-1.7-1.8-.3-.8-.2-1.7.1-2.5,2.5-5,4.1-8.8,4.3-9.2,1.2-3.1-.2-6.6-3.3-7.9-3.1-1.2-6.6.2-7.8,3.3,0,.1-4.5,11.1-10.5,19.6-.4.5-.9,1-1.4,1.3h0c-1.2.8-2.6,1-3.9.6-1.3-.4-2.4-1.3-3-2.6-.7-1.6-1.4-3.1-1.9-4.5-.6-1.5-1.8-2.9-3.3-3.6-.8-.4-1.7-.6-2.6-.6h0Z"/>
            <path class="cls-12" d="M159.5,453.2c-3.8-2.6-22.5-3.5-111.4-69.7l28.4-43.2c21.2,15.5,111.2,69.6,112.1,70.3"/>
            <path class="cls-1" d="M158.5,454.6c-.4-.3-1.4-.7-2.8-1.2-8.3-3.1-33.7-12.7-108.6-68.6l-1.3-1,30.3-46,1.5,1.1c12,8.8,47.9,31.3,106.6,66.9,4.4,2.7,5.3,3.2,5.4,3.3l-1.9,2.8c-.2-.1-2.3-1.4-5.3-3.2-56.6-34.3-92-56.5-105.4-66l-26.5,40.3c73.6,54.7,98.3,64,106.5,67.1,1.7.6,2.8,1,3.5,1.6l-1.9,2.8h0Z"/>
            <ellipse class="cls-1" cx="62.6" cy="362.1" rx="25.9" ry="9" transform="translate(-276.4 220.2) rotate(-57.5)"/>
            <path class="cls-1" d="M50.7,386.2c-1.1,0-2-.3-2.9-.8-5.9-3.8-1.4-17.8,5.8-29.1s18-21.2,23.9-17.5c1.9,1.2,3.8,4.2,2.1,11.7-1.2,5.2-4,11.4-7.8,17.4h0c-6.1,9.6-14.9,18.3-21,18.3h0ZM74.5,341.5c-3.4,0-10.9,5.5-18,16.7-8.1,12.6-9.4,22.7-6.8,24.3,2.6,1.6,11.1-3.8,19.2-16.4,3.6-5.7,6.2-11.5,7.4-16.3,1.1-4.9.5-7.3-.6-8-.3-.2-.7-.3-1.1-.3h0Z"/>
            <path class="cls-2" d="M54.6,367.9s1.6,3.3,8.5,8.5c2.4-2.6,4.9-5.8,7.1-9.4,3.6-5.6,6.1-11.2,7.4-15.9-3.7-2-7.8-4.2-9.3-5.5-3-2.5-13.7,22.2-13.7,22.2h0Z"/>
            <path class="cls-11" d="M63.3,378.7l-1.2-.9c-7-5.3-8.8-8.7-9-9.1l-.4-.7.3-.7s2.4-5.5,5.1-10.9c5.2-10.3,7.5-12,9-12.4.8-.2,1.6,0,2.2.5.6.5,2.7,1.9,9,5.3l1.2.6-.4,1.3c-1.3,5-4,10.8-7.6,16.4-2.3,3.6-4.7,6.8-7.3,9.6l-1.1,1.1h0ZM56.6,367.7c.7,1,2.5,3.3,6.3,6.3,2.1-2.4,4.1-5,5.9-8,3.1-4.8,5.4-9.7,6.8-14.1-3.8-2-6.4-3.6-7.8-4.6-2.2,1.7-7.3,11.4-11.2,20.3h0Z"/>
            <path class="cls-1" d="M77.5,338.9c5.9,3.8,1.4,17.8-5.8,29.1-3.8,6-8.2,11.1-12.5,14.4l-2.1-2.7c3.9-3.1,8.1-7.9,11.7-13.6,8.1-12.6,9.4-22.7,6.8-24.3l1.9-2.9h0Z"/>
            <path class="cls-2" d="M3.2,346.1c2.1-3.7,6.9-5,10.6-2.8,0,0,2.1,1.2,5.3,2.8.9.5,1.9-.2,2-1.2,0-.3,0-.6,0-.9,0-.6-.2-1.1-.7-1.4-6.2-3.2-10.8-6.2-11.1-6.4-3.6-2.3-4.6-7.1-2.2-10.7s7.1-4.6,10.7-2.3c0,0,4.2,2.7,9.7,5.5.5.2,1,.2,1.4-.1.2-.2.5-.4.8-.5.7-.4.8-1.4.3-2-3.5-4.5-5.8-8.1-6-8.4-2.3-3.6-1.3-8.4,2.3-10.7,3.6-2.3,8.4-1.3,10.7,2.3,0,.1,6.4,9.9,13.7,17,.3.3.7.5,1.1.7h0c1.7.7,3.7-.3,4.1-2.1.4-1.6.7-3.1,1-4.7.7-4.2,4.7-7.3,8.9-6.6,4.2.7,7,4.7,6.4,8.9,0,.4-.1.8-.2,1.1-1.3,7.1-1.6,14.3-.8,21.5.9,8.9-6.6,19.8-15.4,24.1-7,3.4-14.9,3.1-21.3-.2-1.9-.9-3.8-1.7-5.8-2.4-11.2-3.6-22.1-9.9-22.6-10.1-3.7-2.1-4.9-6.9-2.8-10.6h0Z"/>
            <path class="cls-11" d="M45.3,373.5c-4,0-7.9-.9-11.6-2.8-1.7-.9-3.6-1.6-5.6-2.2-11.5-3.7-22.5-10-22.9-10.3-4.5-2.6-6-8.4-3.4-12.9s8.4-6.1,12.9-3.4c0,0,1.8,1.1,4.7,2.5,0,0,0-.2,0-.3-6.2-3.2-10.8-6.2-11-6.4-4.4-2.9-5.6-8.7-2.8-13.1s8.7-5.6,13.1-2.8c0,0,4,2.6,9.3,5.4.1,0,.2-.2.3-.2-3.5-4.5-5.7-8.1-5.8-8.2-2.8-4.4-1.6-10.3,2.8-13.1,4.4-2.8,10.2-1.6,13.1,2.8,0,.1,6.3,9.8,13.4,16.7.1.1.3.2.5.3.5.2,1,0,1.2,0,.2-.1.6-.4.7-.9.4-1.6.7-3.1.9-4.5.4-2.5,1.9-4.8,4-6.4,2.1-1.5,4.5-2.1,7-1.7,5.1.9,8.6,5.7,7.8,10.8,0,.4-.1.8-.2,1.2-1.2,7-1.5,14-.8,21,.9,9.2-6.6,21-16.4,25.8-3.6,1.7-7.4,2.6-11.2,2.6h0ZM9.9,344c-2.1,0-4.1,1.1-5.2,3h0c-1.7,2.9-.7,6.6,2.2,8.2.4.3,11.1,6.5,22.2,10,2.2.7,4.2,1.5,6.1,2.5,6.3,3.2,13.5,3.2,19.8.2,8.5-4.1,15.3-14.6,14.5-22.4-.7-7.3-.4-14.6.9-22,0-.4.1-.7.2-1.1.5-3.3-1.7-6.4-4.9-6.9-1.5-.2-3.1.1-4.4,1.1-1.4,1-2.3,2.5-2.6,4.1-.2,1.5-.6,3.1-1,4.8-.3,1.3-1.2,2.5-2.5,3.1-1.2.6-2.7.7-4,.2-.6-.3-1.2-.6-1.7-1.1-7.4-7.2-13.9-17.2-13.9-17.3-1.8-2.8-5.5-3.6-8.3-1.8-2.8,1.8-3.6,5.5-1.8,8.3,0,.1,2.4,3.7,5.9,8.2.5.7.8,1.6.6,2.4s-.6,1.6-1.3,2.1c-.2.1-.4.3-.7.5-.9.7-2.2.8-3.3.3-5.6-2.9-9.8-5.6-9.8-5.6-2.8-1.8-6.5-1-8.3,1.8-1.8,2.8-1,6.5,1.8,8.3.2.1,4.8,3.1,10.9,6.3,1.1.6,1.8,1.8,1.7,3,0,.3,0,.6,0,.9,0,1-.6,2-1.6,2.5-.9.5-2,.6-2.9,0-3.2-1.6-5.3-2.9-5.4-2.9-.9-.5-2-.8-3-.8h0Z"/>
            <path class="cls-2" d="M88.5,255.5c-5.9,0-11.3,2.6-15,6.7l-8.4-3.2c-10.7-4-18.8-12.7-22.5-23.5-3.7-10.8-10.2-20.7-19.4-28.7-28.7-25-72.6-21.1-96.5,9.1-21.3,27-18.5,66.3,6.4,90,24.1,23,60.2,24.3,85.7,5.7,6.3-4.6,6.7-14,.8-19.2l-.4-.4c-4-3.5-9.7-3.8-14.2-1.2-9.7,5.6-22.4,4.4-30.9-4-9.2-9-10.2-23.8-2.4-34,9.1-11.9,26.2-13.5,37.4-3.9.7.6,1.3,1.2,1.9,1.8,13.7,14.5,31.2,24.9,50.9,28.5l7.4,1.4c2.2,8.7,10.1,15.2,19.5,15.2s20.1-9,20.1-20.1-9-20.1-20.1-20.1h0Z"/>
            <path class="cls-11" d="M-20.7,326.2c-17.2,0-34.2-6.4-47.5-19-12.3-11.8-19.8-27.7-21-44.9-1.2-17.2,3.9-34,14.5-47.4,11.8-14.9,28.6-24.1,47.5-25.9,18.9-1.8,37.1,4.1,51.4,16.5,9.1,7.9,16,18.1,19.9,29.5,3.6,10.5,11.4,18.7,21.5,22.5l7.4,2.8c4.1-4.1,9.6-6.4,15.4-6.4,12,0,21.8,9.8,21.8,21.9s-9.8,21.9-21.8,21.9-18.1-6.3-20.9-15.4l-6.4-1.2c-19.4-3.5-37.3-13.6-51.8-29-.6-.6-1.1-1.1-1.8-1.7-5.1-4.4-11.5-6.4-18.2-5.8-6.7.7-12.6,4-16.7,9.4-7.3,9.6-6.4,23.2,2.2,31.7,7.7,7.6,19.6,9.1,28.9,3.7,5.3-3,11.8-2.5,16.2,1.4l.4.4c3.2,2.8,5,6.9,4.8,11.2-.2,4.3-2.2,8.2-5.7,10.7-12.1,8.9-26.3,13.2-40.4,13.2h0ZM-20.6,192c-2.1,0-4.2.1-6.2.3-17.9,1.7-33.9,10.4-45.1,24.6-20.7,26.2-17.9,64.7,6.2,87.7,22.9,21.9,58,24.2,83.5,5.5,2.6-1.9,4.2-4.8,4.3-8.1.1-3.2-1.2-6.3-3.6-8.4l-.4-.4c-3.3-2.9-8.3-3.3-12.3-1-10.7,6.1-24.2,4.4-33-4.3-4.7-4.7-7.6-10.9-8.1-17.6s1.5-13.3,5.5-18.6c4.7-6.1,11.4-9.9,19.1-10.7,7.5-.8,15.1,1.6,20.8,6.6.7.6,1.4,1.2,2,1.9,14,14.9,31.3,24.6,49.9,28l8.5,1.6.3,1.1c2.1,8.2,9.4,13.9,17.8,13.9s18.4-8.3,18.4-18.4-8.3-18.4-18.4-18.4-10.2,2.2-13.7,6.1l-.8.9-9.5-3.6c-11-4.1-19.6-13.1-23.6-24.6-3.7-10.8-10.2-20.5-18.9-28-12-10.4-26.9-16-42.6-16h0Z"/>
            <ellipse class="cls-10" cx="89.1" cy="276.5" rx="10.3" ry="10.3"/>
          </g>
        </g>
      </g>
    </g>
  </g>
</svg>