<?xml version="1.0" encoding="UTF-8"?><svg id="_레이어_2" xmlns="http://www.w3.org/2000/svg" viewBox="0 0 1920 1080"><defs><style>.cls-1{fill:#567ae0;}.cls-2{fill:#f6f6f6;}.cls-3{fill:#00b083;}.cls-4{fill:#bababa;}.cls-5{fill:#fff;}.cls-6{fill:#d3d6d8;}.cls-7{fill:none;}.cls-8{fill:#bfbfbf;}.cls-9{fill:#f1f1f1;}.cls-10{fill:#dbdbdb;}.cls-11{fill:#dedede;}.cls-12{fill:#ccc;}.cls-13{fill:#f4f4f4;}.cls-14{fill:#d1d1d1;}.cls-15{fill:#8095f1;}.cls-16{fill:#2963d1;}.cls-17{fill:#e6e6e6;}</style></defs><g id="_레이어_1-2"><rect class="cls-7" width="1920" height="1080"/><path class="cls-1" d="M1800.83,369.73l-1.73-76.24c0-.11.02-.22.07-.32l31.47-68.02c.14-.31.48-.47.81-.41.33.07.57.36.58.7l1.73,76.24c0,.11-.02.22-.07.32l-31.47,68.02c-.08.18-.23.31-.41.38-.13.05-.27.06-.4.03-.33-.07-.57-.36-.58-.7Z"/><polygon class="cls-2" points="1798.19 296.84 1816.78 256.67 1814.84 255.02 1816.88 237.7 1818.68 230.56 1828.38 231.58 1830.04 304.73 1799.85 369.99 1798.19 296.84"/><polygon class="cls-5" points="1788.49 295.81 1790.15 368.96 1820.34 303.7 1818.68 230.56 1788.49 295.81"/><path class="cls-6" d="M1799.85,370.25s-.08,0-.11-.02c-.13-.06-.19-.22-.13-.35l30.16-65.2-1.65-72.85-9.47-1c-.15-.02-.25-.15-.24-.29.02-.15.15-.26.29-.24l9.7,1.03c.13.01.23.12.24.26l1.66,73.15s0,.08-.02.12l-30.19,65.26c-.05.1-.14.15-.24.15Z"/><path class="cls-6" d="M1790.15,369.23s-.04,0-.05,0c-.12-.03-.21-.13-.21-.25l-1.66-73.15s0-.08.02-.12l30.19-65.26c.05-.11.17-.17.3-.15.12.03.21.13.21.25l1.66,73.15s0,.08-.02.12l-30.19,65.26c-.04.1-.14.15-.24.15ZM1788.76,295.87l1.63,71.94,29.68-64.16-1.63-71.94-29.68,64.16Z"/><path class="cls-5" d="M1757.56,260.83c44.05,18.85,68.81,46,68.81,46l-81.78,37.59,12.96-83.59Z"/><path class="cls-6" d="M1744.59,344.68c-.06,0-.11-.02-.16-.05-.08-.06-.12-.16-.1-.25l12.96-83.59c.01-.08.06-.15.13-.19.07-.04.16-.04.23-.01,43.6,18.66,68.66,45.79,68.9,46.06.06.06.08.15.06.23-.02.08-.07.15-.15.19l-81.78,37.59s-.07.02-.11.02ZM1757.77,261.21l-12.84,82.76,80.99-37.23c-2.71-2.86-27.18-27.92-68.16-45.53Z"/><polygon class="cls-5" points="1706.87 366.99 1803.65 365.8 1818.69 296.97 1721.91 298.16 1706.87 366.99"/><path class="cls-6" d="M1706.87,367.25s-.04,0-.06,0c-.14-.03-.23-.17-.2-.32l15.04-68.83c.03-.12.13-.21.26-.21l96.78-1.18h0c.15,0,.26.12.27.26,0,.15-.12.27-.26.27l-96.57,1.18-14.99,68.62c-.03.12-.14.21-.26.21Z"/><path class="cls-15" d="M1700.24,377.57l15.04-68.83c.07-.33.36-.57.7-.57l96.78-1.18c.22,0,.43.1.57.27.14.17.19.4.15.61l-15.04,68.83c-.05.25-.23.44-.46.53-.08.03-.16.05-.25.05l-96.78,1.18c-.22,0-.43-.1-.57-.27-.14-.17-.19-.4-.15-.61Z"/><polygon class="cls-15" points="1833.69 302 1812.77 306.98 1797.99 377.22 1802.22 370.02 1833.69 302"/><polygon class="cls-16" points="363.74 627.37 339.82 708.3 341.19 709.32 454.73 657.78 457.27 653.12 481.98 574.11 363.74 627.37"/><polygon class="cls-12" points="350.04 623.44 336.11 705.96 337.48 706.98 451.88 656.76 453.36 653.03 468.28 570.18 350.04 623.44"/><path class="cls-17" d="M451.83,656.66c-12.48,4.82-28.83,8.4-41.06,13.95-20.07,9.11-40.15,18.23-60.22,27.34-1.43.65-15.14,8.35-16.37,7.43l-1.37-1.02,13.93-82.52,114.09-54.9c-6.33,10.06-9.87,19.72-12.91,32.18-1.64,6.71-3.47,15.85-3.19,23.61.39,11,5.81,34.43,7.1,33.93Z"/><path class="cls-9" d="M441.79,659.85c-10.32,5.39-18.48,7.8-29.22,12.32-7.03,2.96-14.14,5.72-21.25,8.48-10.7,4.16-21.4,8.31-32.09,12.47-5.24,2.04-10.48,4.07-15.72,6.11-2.7,1.05-5.88.59-8.29-1.35-5.19-14.8-12.09-28.51-9.47-45.03,1.7-10.7,3.52-22.24,10.37-34.47l112.72-53.42c-8.04,9.11-13.87,29.26-14.23,42.28-.43,15.78,5.94,33.35,16.74,49.47-1.77.96-7.78,2.23-9.56,3.17Z"/><polygon class="cls-9" points="274.6 676.1 339.35 705.99 451.64 656.77 387.74 625.17 274.6 676.1"/><polygon class="cls-17" points="272.14 688.44 336.52 708.51 449.55 657.62 385.28 637.51 272.14 688.44"/><polygon class="cls-16" points="274.05 699.6 340.91 709.55 453.11 657.62 387.19 648.67 274.05 699.6"/><path class="cls-3" d="M1181.67,906.84c-1.06-.18-2.08.61-2.29,1.78l-16.03,92.69c-.2,1.17.49,2.26,1.56,2.44l67.25,11.63,16.76-96.91-67.25-11.63Z"/><path class="cls-3" d="M1316.94,930.22l-68.01-11.76-16.76,96.91,68.01,11.76c1.06.18,2.08-.61,2.29-1.78l16.03-92.69c.2-1.17-.49-2.26-1.56-2.44Z"/><path class="cls-5" d="M1234.05,1007.84l14.58-84.34s-33.41-18.23-61.89-13.32l-14.87,85.99,62.18,11.67Z"/><path class="cls-13" d="M1234.05,1007.84l14.58-84.34s37.59-5.95,62.77,8.24l-14.87,85.99-62.48-9.89Z"/><polygon class="cls-11" points="1186.74 910.19 1181.04 914.47 1166.83 996.68 1171.87 996.18 1186.74 910.19"/><polygon class="cls-14" points="1311.4 931.74 1315.32 937.69 1301.11 1019.9 1296.53 1017.73 1311.4 931.74"/><polygon class="cls-4" points="1166.83 996.68 1171.87 996.18 1234.05 1007.84 1233.4 1011.59 1166.83 996.68"/><path class="cls-10" d="M1236.5,935.07c-.07,0-.14-.01-.2-.04-17.22-7.26-42.83-8.77-43.09-8.79-.29-.02-.5-.26-.49-.55.02-.29.27-.5.55-.49.26.01,26.04,1.54,43.43,8.87.26.11.39.42.28.68-.08.2-.28.32-.48.32Z"/><path class="cls-10" d="M1235.83,942.34c-.07,0-.14-.01-.2-.04-17.22-7.26-42.83-8.77-43.09-8.79-.29-.02-.5-.26-.49-.55.02-.29.27-.5.55-.49.26.01,26.04,1.54,43.43,8.87.26.11.39.42.28.68-.08.2-.28.32-.48.32Z"/><path class="cls-10" d="M1233.47,950.42c-.07,0-.14-.01-.2-.04-17.22-7.26-42.83-8.77-43.09-8.79-.29-.02-.5-.26-.49-.55.02-.29.27-.5.55-.49.26.01,26.04,1.54,43.43,8.87.26.11.39.42.28.68-.08.2-.28.32-.48.32Z"/><path class="cls-10" d="M1232.8,957.69c-.07,0-.14-.01-.2-.04-17.22-7.26-42.83-8.77-43.09-8.79-.29-.02-.5-.26-.49-.55.02-.29.27-.5.55-.49.26.01,26.04,1.54,43.43,8.87.26.11.39.42.28.68-.08.2-.28.32-.48.32Z"/><path class="cls-10" d="M1230.66,966.51c-.07,0-.14-.01-.2-.04-17.22-7.26-42.83-8.77-43.09-8.79-.29-.02-.5-.26-.49-.55.02-.29.27-.5.55-.49.26.01,26.04,1.54,43.43,8.87.26.11.39.42.28.68-.08.2-.28.32-.48.32Z"/><path class="cls-10" d="M1230,973.78c-.07,0-.14-.01-.2-.04-17.22-7.26-43.46-8.55-43.72-8.56-.29-.01-.51-.26-.49-.54.01-.29.26-.51.54-.49.26.01,26.69,1.31,44.08,8.64.26.11.39.42.28.68-.08.2-.28.32-.48.32Z"/><path class="cls-8" d="M1299.39,943.12c-.06,0-.12,0-.17-.03-17.6-6.29-43.25-6.39-43.51-6.39-.29,0-.52-.23-.52-.52,0-.29.23-.52.52-.52h0c.26,0,26.09.09,43.85,6.45.27.1.41.39.31.66-.08.21-.28.34-.49.34Z"/><path class="cls-8" d="M1298.09,950.74c-.06,0-.12,0-.17-.03-17.6-6.3-42.85-6.45-43.1-6.45-.29,0-.52-.23-.52-.52,0-.29.23-.52.52-.52h0c.25,0,25.68.15,43.45,6.51.27.1.41.39.31.66-.08.21-.28.34-.49.34Z"/><path class="cls-8" d="M1295.9,959.12c-.06,0-.12,0-.17-.03-17.6-6.3-42.85-6.45-43.1-6.45-.29,0-.52-.23-.52-.52,0-.29.23-.52.52-.52h0c.25,0,25.68.15,43.45,6.51.27.1.41.39.31.66-.08.21-.28.34-.49.34Z"/><path class="cls-8" d="M1294.36,967.49c-.06,0-.12,0-.17-.03-17.6-6.29-42.85-6.45-43.1-6.45-.29,0-.52-.23-.52-.52,0-.29.23-.52.52-.52h0c.25,0,25.68.15,43.45,6.51.27.1.41.39.31.66-.08.21-.28.34-.49.34Z"/><path class="cls-8" d="M1293.02,975.87c-.06,0-.12,0-.17-.03-17.6-6.29-42.85-6.45-43.1-6.45-.29,0-.52-.23-.52-.52,0-.29.23-.52.52-.52h0c.25,0,25.68.15,43.45,6.51.27.1.41.39.31.66-.08.21-.28.34-.49.34Z"/><path class="cls-8" d="M1291.9,983.74c-.06,0-.12,0-.17-.03-17.6-6.29-42.85-6.45-43.1-6.45-.29,0-.52-.23-.52-.52,0-.29.23-.52.52-.52h0c.25,0,25.68.15,43.45,6.51.27.1.41.39.31.66-.08.21-.28.34-.49.34Z"/><path class="cls-8" d="M1287.98,1001.01c-.06,0-.12,0-.17-.03-17.6-6.29-42.85-6.45-43.1-6.45-.29,0-.52-.23-.52-.52,0-.29.23-.52.52-.52h0c.25,0,25.68.15,43.45,6.51.27.1.41.39.31.66-.08.21-.28.34-.49.34Z"/><path class="cls-8" d="M1290.14,992.38c-.06,0-.12,0-.17-.03-17.6-6.29-42.85-6.45-43.1-6.45-.29,0-.52-.23-.52-.52,0-.29.23-.52.52-.52h0c.25,0,25.68.15,43.45,6.51.27.1.41.39.31.66-.08.21-.28.34-.49.34Z"/><path class="cls-10" d="M1226.72,992.81c-.07,0-.14-.01-.2-.04-17.22-7.26-43.46-8.55-43.72-8.56-.29-.01-.51-.26-.49-.54.01-.29.26-.5.54-.49.26.01,26.69,1.31,44.08,8.64.26.11.39.42.28.68-.08.2-.28.32-.48.32Z"/></g></svg>