<?xml version="1.0" encoding="UTF-8"?><svg id="_레이어_2" xmlns="http://www.w3.org/2000/svg" viewBox="0 0 1920 1080"><defs><style>.cls-1{fill:#ffdec2;}.cls-2{fill:#483e31;}.cls-3{fill:#f6f6f6;}.cls-4{fill:#c2c2c2;}.cls-5{fill:#008f69;}.cls-6{fill:#00b083;}.cls-7{fill:#fff;}.cls-8{fill:#d3d6d8;}.cls-9{fill:none;}.cls-10{fill:#fbfbfb;}.cls-11{fill:#dbdad9;}.cls-12{fill:#dedede;}.cls-13{fill:#f4f4f4;}.cls-14{fill:#eaeaea;}.cls-15{fill:#00b5b3;}</style></defs><g id="_레이어_1-2"><rect class="cls-9" width="1920" height="1080"/><polygon class="cls-3" points="659.64 871.55 594.72 891.21 580.15 850.78 501.34 864.44 499.24 862.29 493.14 865.87 524.22 952.26 530.53 955.15 607.61 930.22 667.4 880.55 659.64 871.55"/><path class="cls-8" d="M524.22,952.45c-.08,0-.15-.05-.18-.13l-31.08-86.39c-.03-.09,0-.19.08-.23l6.1-3.57c.09-.05.21-.02.27.07.05.09.02.21-.07.26l-5.96,3.49,31.03,86.24c.04.1-.02.21-.12.25-.02,0-.04.01-.07.01Z"/><path class="cls-8" d="M523.49,946.34c-.08,0-.15-.05-.18-.13l-29.07-81.03c-.04-.1.02-.21.12-.25.1-.04.21.02.25.12l29.07,81.03c.04.1-.02.21-.12.25-.02,0-.04.01-.07.01Z"/><path class="cls-8" d="M525.23,945.91c-.08,0-.15-.05-.18-.13l-29.24-81.5c-.04-.1.02-.21.12-.25.1-.04.21.02.25.12l29.24,81.5c.04.1-.02.21-.12.25-.02,0-.04.01-.07.01Z"/><path class="cls-8" d="M526.64,944.57c-.08,0-.15-.05-.18-.13l-29.08-81.05c-.04-.1.02-.21.12-.25.1-.04.21.02.25.12l29.08,81.05c.04.1-.02.21-.12.25-.02,0-.04.01-.07.01Z"/><polygon class="cls-7" points="613.54 923.46 530.15 948.72 499.07 862.32 586.07 847.24 613.54 923.46"/><path class="cls-8" d="M527.79,942.36c-.08,0-.15-.05-.18-.13l-28.73-79.85c-.04-.1.02-.21.12-.25.1-.04.21.02.25.12l28.73,79.85c.04.1-.02.21-.12.25-.02,0-.04.01-.07.01Z"/><path class="cls-8" d="M527.91,942.36c-.08,0-.16-.03-.22-.1-.1-.12-.09-.3.03-.41l54.43-47.11s.07-.05.11-.06l77.3-23.41c.11-.03.23,0,.3.09l7.76,9c.1.12.09.3-.03.41-.12.1-.31.09-.41-.03l-7.64-8.86-77.06,23.34-54.39,47.07c-.06.05-.12.07-.19.07Z"/><path class="cls-8" d="M590.29,904.49c-.08,0-.16-.03-.22-.1l-7.76-9c-.1-.12-.09-.3.03-.41.12-.1.3-.09.41.03l7.76,9c.1.12.09.3-.03.41-.05.05-.12.07-.19.07Z"/><path class="cls-8" d="M529.38,944.5c-.05,0-.11-.02-.15-.07-.07-.08-.06-.2.02-.27l54.43-47.11c.08-.07.2-.06.27.02.07.08.06.2-.02.27l-54.43,47.11s-.08.05-.13.05Z"/><path class="cls-8" d="M531.33,946.43c-.05,0-.11-.02-.15-.07-.07-.08-.06-.2.02-.27l54.43-47.11c.08-.07.2-.06.27.02s.06.2-.02.27l-54.43,47.11s-.08.05-.13.05Z"/><path class="cls-8" d="M533.28,948.37c-.05,0-.11-.02-.15-.07-.07-.08-.06-.2.02-.27l54.43-47.11c.08-.07.2-.06.27.02.07.08.06.2-.02.27l-54.43,47.11s-.08.05-.13.05Z"/><path class="cls-8" d="M584.31,897.11c-.08,0-.16-.05-.19-.14-.03-.1.03-.21.13-.24l77.3-23.41c.1-.03.21.03.24.13s-.03.21-.13.24l-77.3,23.41s-.04,0-.06,0Z"/><path class="cls-8" d="M586.1,899.14c-.08,0-.16-.05-.19-.14-.03-.1.03-.21.13-.24l77.3-23.41c.1-.03.21.03.24.13.03.1-.03.21-.13.24l-77.3,23.41s-.04,0-.06,0Z"/><path class="cls-8" d="M587.89,901.17c-.08,0-.16-.05-.19-.14-.03-.1.03-.21.13-.24l77.3-23.41c.1-.03.21.03.24.13.03.1-.03.21-.13.24l-77.3,23.41s-.04,0-.06,0Z"/><path class="cls-15" d="M613.21,930.51l-83.39,25.26,60.95-52.75c1.12-.97,2.44-1.7,3.86-2.13l75.26-22.8c1.37-.42,2.34,1.34,1.25,2.27l-57.94,50.14Z"/><path class="cls-15" d="M529.82,956.54c-.28,0-.54-.15-.68-.4-.18-.32-.1-.72.17-.96l60.95-52.75c1.21-1.05,2.61-1.82,4.14-2.28l75.26-22.8c.97-.3,1.96.11,2.45,1,.49.89.3,1.94-.47,2.6l-57.94,50.14c-.08.07-.18.12-.28.16l-83.39,25.26c-.07.02-.15.03-.22.03ZM670.31,878.81c-.06,0-.12,0-.18.03l-75.26,22.8c-1.33.4-2.53,1.06-3.58,1.97l-58.2,50.37,79.75-24.16,57.82-50.03c.31-.27.17-.59.12-.68-.04-.08-.19-.29-.46-.29ZM613.21,930.51h0,0Z"/><path class="cls-1" d="M1573.94,718.44c-.41-.78-.42-.77-.83-1.55s-.26-.86-.67-1.64-.53-.72-.94-1.5-.42-.77-.83-1.56-.24-.87-.65-1.65-.52-.72-.93-1.5-.38-.8-.78-1.58-.48-.74-.89-1.52-.23-.87-.64-1.65c-.41-.78-.51-.73-.92-1.51-.41-.78-.39-.79-.8-1.57s-.46-.75-.87-1.53-.36-.81-.77-1.59-.47-.75-.88-1.53-.4-.79-.8-1.57-.29-.84-.7-1.62-.45-.76-.85-1.54-.43-.77-.83-1.55-.38-.79-.79-1.58-.46-.75-.87-1.53-.3-.84-.71-1.62c-.41-.78-.4-.79-.8-1.57s-.54-.71-.94-1.5-.27-.86-.67-1.64-.48-.74-.88-1.53-.36-.81-.76-1.59-.4-.78-.81-1.56-.55-.71-.95-1.49c-.41-.78-.39-.79-.79-1.57s-.36-.8-.77-1.59c-.41-.78-.46-.75-.87-1.53s-.32-.83-.72-1.61-.49-.74-.89-1.52-.32-.83-.72-1.61-.39-.79-.8-1.57c-.41-.78-.41-.78-.82-1.56s-.46-.76-.86-1.54-.42-.78-.82-1.56-.41-.78-.82-1.56-.42-.78-.83-1.56c-.41-.78-.34-.82-.75-1.6s-.48-.75-.88-1.53c-.07-.13-.11-.34-.25-.35-.88-.06-.89.1-1.78.04s-.88-.07-1.77-.13-.89-.03-1.77-.09-.88-.13-1.76-.19-.89-.02-1.77-.08-.88-.18-1.76-.24-.88-.05-1.77-.11-.89-.03-1.77-.09-.89.06-1.78,0-.88-.05-1.77-.11-.87-.21-1.76-.27c-.88-.06-.89-.02-1.77-.08s-.89,0-1.77-.06-.88-.18-1.76-.24-.89.06-1.78,0-.88-.07-1.77-.13-.88-.13-1.76-.2c-.88-.06-.89.05-1.77-.01s-.88-.07-1.77-.13-.88-.18-1.76-.24-.88-.05-1.77-.11-.89.03-1.77-.03c-.88-.06-.88-.14-1.76-.2s-.89,0-1.77-.06-.88-.15-1.76-.21-.89.05-1.78-.01-.88-.12-1.76-.18-.88-.13-1.76-.19-.89-.04-1.77-.11-.89.05-1.78-.01-.88-.13-1.76-.19-.88-.06-1.77-.12-.88-.09-1.77-.15-.89.04-1.78-.02-.87-.2-1.76-.26-.89-.05-1.77-.11-.89-.03-1.77-.09-.9.1-1.78.04-.87-.21-1.76-.27-.89.06-1.78,0-.88-.12-1.77-.18-.88-.17-1.76-.23c-.29-.02-.45.34-.35.61.3.83.22.86.52,1.69s.27.84.58,1.67.42.79.72,1.62c.3.83.23.86.53,1.69s.37.8.68,1.63.22.86.52,1.69.37.8.68,1.63.19.87.49,1.7.35.81.65,1.64.44.78.74,1.61.17.88.47,1.71.39.8.7,1.63.26.85.56,1.68.3.83.6,1.66.32.82.62,1.65c.3.83.26.85.56,1.67s.32.82.63,1.65.27.84.58,1.67.41.79.72,1.62.24.85.55,1.68q.3.83.61,1.66t.61,1.66c.3.83.27.84.57,1.67s.3.83.6,1.66c.3.83.41.79.71,1.62s.16.88.47,1.71.49.76.79,1.59.21.86.51,1.69.32.82.63,1.65c.3.83.35.81.65,1.64s.19.87.49,1.7.37.81.67,1.64.32.82.63,1.65.21.86.51,1.69c.3.83.35.81.65,1.64s.27.84.57,1.67.41.79.71,1.62c.3.83.32.83.62,1.66s.16.88.47,1.71c.02.05.2.07.2.13,0,.21-.04.82.05,1.62.05.49.07,1.05.22,1.61.14.51.36,1.02.61,1.51s.61.87,1,1.26c.37.37.73.8,1.26,1.02.46.19,1.02.16,1.62.2.89.06.89.06,1.78.12s.89.08,1.78.14.88.16,1.77.22.89.03,1.78.09.88.14,1.77.2.89.03,1.78.1.9-.03,1.79.03.89.09,1.78.16.89,0,1.78.06.88.16,1.77.22.89.01,1.78.07.89.07,1.78.13.88.17,1.77.23.9-.09,1.79-.03c.89.06.88.16,1.77.22s.89.09,1.78.15.9-.01,1.79.05.89,0,1.78.06.89.06,1.78.13.88.22,1.77.28.9-.07,1.79-.01.88.17,1.77.23.9-.1,1.79-.04.89.06,1.78.12.88.25,1.77.32.9-.04,1.79.02.89.13,1.78.19.9-.04,1.79.02.89.06,1.78.12.89.07,1.78.13.88.17,1.77.23.89.05,1.78.11c.89.06.9,0,1.79.06s.89.04,1.78.1.89.03,1.78.1.89.03,1.78.09.88.18,1.77.24.89.06,1.78.12.9-.05,1.79,0c.89.06.88.17,1.77.23s.89.05,1.78.11c.89.06.89.09,1.78.15s.9,0,1.79.06.89.07,1.78.13.89.1,1.78.16c.89.06.9,0,1.79.07.42.03.65-.57.3-.8-.46-.3-1.04-.57-1.41-1.07-.33-.44-.56-1.01-.7-1.64-.11-.52-.2-1.12-.11-1.78.07-.52.37-1.05.6-1.67.04-.11-.09-.22-.14-.32Z"/><path class="cls-2" d="M1489.69,714.57c.1.73.44,1.42.81,2.05.37.63.89,1.16,1.5,1.56.45.3.91.62,1.44.73s1.09.07,1.62,0,1.1-.17,1.57-.42.78-.73,1.13-1.15c.36-.44.65-.9.73-1.46.09-.63.08-1.28-.22-1.85s-.8-.99-1.21-1.45c-.35-.39-.63-.86-1.02-1.21s-.82-.69-1.28-.95c-.5-.28-1.24-.45-1.95-.55s-1.42-.04-1.94.34c-.36.27-.67.71-.85,1.23-.16.46-.15,1-.19,1.49-.05.56-.16,1.1-.12,1.5,0,.04-.01.09,0,.13Z"/><path class="cls-11" d="M1578.13,722.65c-.4-.79-.42-.78-.82-1.57s-.39-.79-.8-1.58-.38-.8-.78-1.59c-.4-.79-.48-.75-.88-1.54s-.4-.79-.81-1.58-.39-.8-.79-1.59-.44-.77-.84-1.56-.27-.86-.67-1.65-.4-.79-.8-1.58c-.4-.79-.47-.75-.88-1.54s-.44-.77-.84-1.56c-.4-.79-.37-.81-.77-1.6s-.34-.82-.74-1.61-.51-.73-.92-1.52-.39-.79-.8-1.58-.38-.8-.78-1.59-.31-.84-.71-1.63-.45-.77-.85-1.56-.49-.75-.89-1.54-.33-.83-.73-1.62-.34-.82-.74-1.61-.47-.75-.88-1.54c-.4-.79-.39-.8-.79-1.59s-.44-.77-.84-1.56-.32-.83-.73-1.62-.45-.77-.85-1.56c-.4-.79-.32-.83-.73-1.62s-.41-.79-.81-1.58-.57-.71-.97-1.5-.29-.85-.69-1.64-.37-.81-.78-1.6-.55-.72-.95-1.51-.35-.82-.75-1.61-.28-.85-.68-1.64-.56-.71-.96-1.5-.41-.79-.81-1.58c-.4-.79-.27-.86-.67-1.65s-.46-.76-.86-1.55c-.4-.79-.41-.79-.82-1.58s-.45-.76-.86-1.55-.28-.85-.69-1.64-.42-.78-.83-1.57-.4-.8-.8-1.59-.44-.77-.84-1.57-.4-.8-.8-1.59c-.07-.13-.23-.17-.37-.18-.88-.06-.88-.15-1.76-.21s-.89-.04-1.77-.1c-.88-.06-.89.07-1.78.01s-.88-.14-1.76-.2c-.88-.06-.88-.1-1.77-.16-.88-.06-.88-.12-1.76-.18s-.89.08-1.78.02c-.88-.06-.88-.1-1.77-.16s-.88-.17-1.76-.23c-.88-.06-.89.01-1.77-.05-.88-.06-.88-.12-1.76-.18s-.89.08-1.78.02c-.88-.06-.88-.13-1.76-.19s-.89.02-1.77-.04-.88-.07-1.77-.13-.88-.12-1.76-.18-.88-.11-1.76-.17c-.88-.06-.89-.03-1.77-.09s-.89.05-1.78-.01-.88-.07-1.77-.13-.88-.15-1.76-.21-.89.06-1.78,0-.88-.18-1.76-.24-.88-.14-1.76-.2-.89.1-1.78.04-.88-.08-1.77-.14-.89-.04-1.77-.1-.89-.04-1.77-.1c-.88-.06-.88-.07-1.77-.13s-.87-.23-1.76-.29-.89,0-1.77-.06-.89.02-1.77-.04-.89-.02-1.77-.08-.88-.16-1.76-.22-.89.03-1.78-.03-.88-.15-1.76-.21-.88-.08-1.77-.14-.88-.12-1.77-.18-.89,0-1.77-.05-.89.02-1.78-.04-.88-.15-1.76-.21-.89.07-1.78,0c-.3-.02-.48.16-.38.44.3.82.35.8.65,1.62s.24.84.55,1.66c.3.82.35.8.65,1.62.3.82.19.86.5,1.68s.27.83.57,1.65.47.76.77,1.58.27.83.57,1.65.27.83.57,1.65.31.82.61,1.63.32.81.62,1.63.35.8.65,1.62.27.83.58,1.65.36.8.66,1.62.15.88.45,1.7.47.76.77,1.57.19.86.49,1.68.39.79.69,1.61.25.84.55,1.66.25.84.56,1.65.36.8.67,1.61.25.84.55,1.66.27.83.57,1.65.31.82.61,1.63.28.83.59,1.64.35.8.65,1.62.28.83.59,1.64.37.79.68,1.61c.3.82.24.84.54,1.66s.38.79.68,1.61c.3.82.35.8.65,1.62s.14.88.45,1.7.34.81.64,1.63c.3.82.29.83.59,1.64.3.82.39.79.7,1.6s.3.82.61,1.64c.3.82.26.84.56,1.66.3.82.4.78.71,1.6s.16.87.47,1.69c.3.82.33.81.64,1.63s.36.8.66,1.62.22.85.52,1.67.43.77.74,1.59c.3.82.34.81.65,1.63.06.15.09.36.25.37.88.06.88-.01,1.76.05.88.06.88.12,1.76.18s.88.1,1.76.16c.88.06.89-.09,1.77-.03s.88.02,1.76.08.87.21,1.75.27c.88.06.88.1,1.76.16s.88.03,1.76.09c.88.06.88.08,1.76.14s.89-.1,1.77-.04.87.16,1.75.22c.88.06.88-.01,1.76.05.88.06.87.14,1.75.2s.88,0,1.76.06.88.02,1.76.08c.88.06.88.05,1.76.11s.88.1,1.76.16.88.07,1.76.13.88.03,1.76.09.87.16,1.75.22.89-.09,1.77-.03c.88.06.87.25,1.75.31s.88.06,1.76.12.89-.08,1.77-.02.87.2,1.75.26.89-.08,1.77-.02.87.17,1.75.23.88.08,1.76.14c.88.06.89-.05,1.77.01s.88.04,1.76.1.87.17,1.75.23.89-.06,1.77,0,.88.08,1.76.14c.88.06.88.09,1.76.15s.88.01,1.76.07.88.06,1.76.12.87.21,1.75.27.89-.13,1.77-.07.88.05,1.76.11.87.24,1.75.3.89-.03,1.77.03.88.1,1.76.16.88.13,1.76.19.89-.06,1.77,0,.87.15,1.75.21.88.05,1.76.11c.88.06.89-.07,1.77-.01s.87.21,1.75.27c.32.02.53-.38.39-.66Z"/><path class="cls-13" d="M1565.34,722.35c.02-.57.11-1.16.1-1.77s.07-1.17.04-1.78-.22-1.16-.27-1.76.02-1.18-.05-1.78-.3-1.15-.38-1.74-.19-1.16-.28-1.75-.05-1.19-.15-1.78-.18-1.17-.29-1.75-.23-1.16-.36-1.74-.43-1.11-.56-1.69-.19-1.17-.33-1.75-.3-1.14-.45-1.72-.21-1.16-.36-1.74-.31-1.14-.47-1.71-.24-1.16-.4-1.73-.44-1.1-.61-1.67-.23-1.17-.39-1.74c-.17-.57-.49-1.09-.66-1.66s-.27-1.16-.45-1.72-.42-1.11-.6-1.67-.21-1.18-.4-1.74-.47-1.09-.66-1.65-.28-1.16-.47-1.72-.39-1.12-.58-1.68-.5-1.08-.69-1.64-.43-1.11-.63-1.66-.28-1.16-.48-1.72-.55-1.06-.75-1.62-.39-1.12-.59-1.68-.29-1.16-.5-1.71-.42-1.12-.62-1.66-.51-1.08-.72-1.63-.46-1.1-.67-1.64-.33-1.15-.55-1.69-.38-1.13-.6-1.67-.47-1.1-.69-1.64-.43-1.12-.64-1.66c-.23-.56-.62-1.04-.84-1.57-.23-.57-.33-1.17-.55-1.7-.24-.57-.53-1.09-.75-1.61-.24-.58-.38-1.16-.6-1.68-.25-.59-.57-1.1-.79-1.59-.27-.62-.58-1.13-.78-1.6-.34-.79-.44-1.4-.57-1.69-.06-.14-.25-.17-.4-.18q-.87-.06-1.74-.12c-.87-.06-.87-.11-1.74-.17s-.87-.11-1.74-.18-.88.06-1.75,0c-.87-.06-.87-.14-1.74-.2-.87-.06-.88,0-1.75-.06s-.87-.06-1.74-.12-.87-.12-1.74-.18-.87-.04-1.75-.11-.88.02-1.75-.05-.86-.16-1.74-.22c-.87-.06-.87-.07-1.74-.13s-.88.05-1.75,0-.86-.19-1.73-.25-.88.06-1.75,0c-.87-.06-.87-.13-1.74-.2s-.87-.03-1.75-.09-.87-.12-1.74-.18-.87-.09-1.74-.15-.88.01-1.75-.05-.87-.09-1.74-.15-.87-.11-1.74-.17-.88.04-1.75-.02-.87-.08-1.74-.14-.87-.15-1.74-.21-.87-.09-1.74-.16-.88.05-1.75-.01c-.87-.06-.86-.18-1.74-.25s-.88.09-1.76.03-.87-.1-1.74-.16-.87-.11-1.74-.17-.87-.11-1.74-.18c-.87-.06-.88.02-1.75-.04s-.87-.1-1.74-.16-.88-.01-1.75-.07-.88-.02-1.75-.08c-.87-.06-.87-.08-1.74-.14s-.87-.04-1.75-.1-.86-.26-1.73-.32-.87-.05-1.75-.11-.87-.08-1.75-.14c-.3-.02-.45.34-.35.62.14.38.36.93.62,1.65.18.48.22,1.09.45,1.71.19.51.42,1.05.64,1.64.19.52.5,1.03.71,1.62.19.53.31,1.11.51,1.69.19.53.43,1.07.63,1.65.19.54.4,1.09.6,1.65s.33,1.12.53,1.68.33,1.12.53,1.68.48,1.06.68,1.63.44,1.08.64,1.64.26,1.14.46,1.71.47,1.07.67,1.63.35,1.12.54,1.68.4,1.1.58,1.66.35,1.12.54,1.68.37,1.11.56,1.67.38,1.11.56,1.67.27,1.14.46,1.7.42,1.1.6,1.66.31,1.13.49,1.69.39,1.11.56,1.67.32,1.13.49,1.69.39,1.11.57,1.67.38,1.11.55,1.67.3,1.14.47,1.7.47,1.09.64,1.65.19,1.17.36,1.73.42,1.1.58,1.67.21,1.16.37,1.73c.16.57.38,1.12.53,1.68s.44,1.1.59,1.66.13,1.19.28,1.75.44,1.1.58,1.67.16,1.18.3,1.74.28,1.15.41,1.71.41,1.12.55,1.68.3,1.15.42,1.71.07,1.2.19,1.76.44,1.12.55,1.69.22,1.17.32,1.73c.1.59.04,1.2.13,1.77.09.6.24,1.17.31,1.73.08.6.24,1.18.3,1.74.02.2.09.28.29.29q.87.06,1.75.12c.87.06.86.24,1.73.31s.89-.14,1.76-.07.86.21,1.74.27.88.03,1.75.09.87.15,1.74.21.88-.04,1.75.02.87.07,1.75.13.88-.04,1.75.02.87.12,1.74.19c.87.06.87.12,1.74.18s.88-.04,1.75.02.86.24,1.73.31c.87.06.88-.09,1.76-.03s.86.2,1.74.26c.87.06.87.07,1.75.13.87.06.88,0,1.75.06s.88-.02,1.75.05.87.09,1.75.15.88.02,1.75.08.87.18,1.74.24.88.02,1.75.08.87.06,1.75.12.87.12,1.74.18.88-.09,1.76-.03.86.24,1.73.3.87.06,1.75.12.88-.06,1.76,0,.87.16,1.74.23.88.02,1.75.08.88,0,1.75.07.87.12,1.74.18.87.05,1.75.11.88,0,1.75.06.87.1,1.74.16.87.11,1.74.17.87.09,1.75.15.88-.04,1.75.02.87.15,1.74.21c.87.06.88.02,1.75.08s.88.03,1.75.09c.23.02.34-.11.34-.34Z"/><path class="cls-14" d="M1565.49,722.36c.02-.57-.03-1.15-.03-1.76,0-.57-.08-1.15-.1-1.75s0-1.16-.04-1.75.03-1.17-.01-1.76-.16-1.15-.22-1.74-.14-1.15-.21-1.74-.12-1.16-.2-1.74-.18-1.15-.27-1.74-.14-1.15-.23-1.74-.17-1.15-.27-1.73-.28-1.13-.39-1.71-.18-1.15-.29-1.73-.06-1.18-.17-1.75-.35-1.12-.47-1.7-.19-1.15-.31-1.73-.31-1.13-.43-1.7-.27-1.14-.39-1.71-.19-1.15-.32-1.73-.31-1.13-.44-1.7-.24-1.15-.37-1.72-.17-1.16-.3-1.73-.36-1.12-.5-1.69-.34-1.12-.49-1.69-.14-1.17-.29-1.74-.34-1.12-.49-1.69-.35-1.12-.49-1.69-.38-1.11-.53-1.68-.19-1.17-.34-1.73-.24-1.15-.4-1.71-.5-1.08-.66-1.64-.3-1.14-.46-1.69-.22-1.16-.38-1.72-.37-1.12-.53-1.68-.37-1.12-.53-1.68-.35-1.13-.51-1.68-.36-1.13-.52-1.68-.22-1.17-.39-1.72-.42-1.11-.58-1.66c-.18-.58-.36-1.13-.52-1.68-.18-.58-.28-1.16-.45-1.7-.18-.58-.45-1.11-.62-1.65-.19-.59-.3-1.17-.46-1.69-.19-.6-.46-1.13-.63-1.64-.2-.63-.21-1.25-.37-1.73-.26-.8-.43-1.37-.53-1.67-.05-.16-.3-.13-.46-.14-.87-.06-.86-.21-1.73-.27s-.87-.03-1.75-.09-.88.03-1.75-.03-.86-.22-1.73-.29-.88.09-1.75.03-.86-.19-1.73-.25-.87-.07-1.74-.13-.88.1-1.75.04-.87-.11-1.74-.17-.86-.2-1.73-.26-.88,0-1.75-.06-.88,0-1.75-.05-.87-.04-1.74-.1c-.87-.06-.87-.13-1.74-.19s-.87-.09-1.74-.15-.87-.12-1.74-.19c-.87-.06-.88.02-1.75-.04s-.87-.09-1.74-.15-.87-.12-1.74-.18-.88.03-1.75-.03c-.87-.06-.87-.04-1.75-.1s-.87-.12-1.74-.18-.88.03-1.75-.03-.86-.17-1.74-.23-.87-.04-1.75-.1-.87-.04-1.75-.1-.88.01-1.75-.05-.86-.2-1.73-.27-.88-.02-1.75-.08-.88,0-1.75-.05-.87-.11-1.74-.17-.87-.11-1.74-.17-.88,0-1.75-.06-.87-.15-1.74-.21-.88.08-1.75.01-.86-.24-1.73-.3-.88,0-1.75-.07-.88.05-1.75-.02c-.87-.06-.86-.21-1.73-.28s-.89.13-1.76.06-.86-.26-1.73-.32c-.29-.02-.6.39-.51.67.13.38.44.9.69,1.61.17.48.37,1.03.58,1.65.18.51.24,1.11.44,1.7.18.52.47,1.04.66,1.62.18.53.27,1.12.46,1.69.18.54.4,1.08.58,1.65.18.54.44,1.07.62,1.64s.4,1.08.58,1.65.36,1.1.54,1.67.33,1.11.51,1.68.32,1.11.5,1.68.35,1.11.53,1.67.4,1.09.57,1.66.24,1.14.41,1.71.26,1.14.42,1.7.5,1.07.67,1.63.29,1.13.46,1.69.31,1.12.47,1.69.22,1.15.38,1.71.36,1.11.51,1.68.38,1.11.53,1.67.25,1.14.4,1.71.23,1.15.38,1.71.35,1.12.49,1.68.32,1.12.47,1.69.24,1.15.38,1.71.18,1.16.32,1.73.45,1.1.58,1.67.15,1.17.28,1.73.31,1.13.43,1.7.09,1.18.21,1.75.36,1.12.47,1.69.11,1.17.21,1.74.38,1.12.48,1.69.1,1.17.19,1.75.09,1.17.18,1.75.22,1.16.29,1.73.25,1.16.32,1.73,0,1.18.06,1.76.15,1.17.19,1.74.01,1.18.03,1.75c.02.6.09,1.18.09,1.75,0,.6-.08,1.18-.1,1.75-.02.6.07,1.2.02,1.76-.06.61-.08,1.2-.18,1.75-.04.24.04.49.28.51.87.06.88-.03,1.75.03s.87.05,1.74.11.87.15,1.74.21.88-.04,1.75.02.87.16,1.74.22c.87.06.88,0,1.75.06s.87.16,1.74.22.88-.04,1.75.02c.87.06.87.14,1.74.21s.87.06,1.74.12.87.11,1.74.17.88,0,1.75.07.88-.05,1.75,0,.86.26,1.73.32.87.05,1.74.12c.87.06.88,0,1.75.07s.87.05,1.74.11.87.02,1.75.08.87.09,1.74.16.87.05,1.74.11.87.16,1.74.22.88,0,1.75.06.87.03,1.75.09c.87.06.87.1,1.74.16s.88-.02,1.75.04.87.16,1.74.22.87.11,1.74.18.87.05,1.75.11.88.02,1.75.08.87.07,1.74.14.87.09,1.74.15.88-.1,1.76-.04c.87.06.87.09,1.74.15.87.06.87.1,1.74.17s.87.13,1.74.19.88-.08,1.75-.02.87.09,1.74.15c.87.06.87.05,1.75.11s.87.17,1.74.23.88-.06,1.76,0,.87.12,1.74.18c.23.02.48-.12.49-.35Z"/><path class="cls-10" d="M1560.37,722.01c.04-.59,0-1.18.04-1.77s.26-1.17.29-1.76-.04-1.19-.02-1.77-.02-1.18,0-1.77.05-1.18.06-1.77,0-1.18,0-1.77.14-1.18.15-1.77.03-1.18.03-1.77,0-1.18,0-1.77-.1-1.18-.11-1.77.1-1.19.08-1.77-.06-1.18-.08-1.77-.01-1.19-.04-1.77-.08-1.18-.11-1.77-.22-1.17-.26-1.76-.03-1.18-.07-1.77.03-1.19-.02-1.77-.09-1.18-.15-1.76-.16-1.18-.21-1.76-.18-1.17-.24-1.75-.12-1.18-.19-1.76-.08-1.18-.15-1.76-.13-1.18-.21-1.76-.35-1.15-.44-1.73-.17-1.17-.26-1.75-.03-1.2-.13-1.77c-.1-.59-.27-1.16-.38-1.73s-.13-1.18-.24-1.75-.22-1.17-.33-1.74-.43-1.12-.55-1.69-.1-1.19-.23-1.76-.39-1.13-.52-1.7-.25-1.16-.39-1.73-.32-1.15-.46-1.71-.19-1.18-.34-1.74-.35-1.14-.51-1.7-.26-1.17-.43-1.72c-.17-.58-.5-1.1-.68-1.64-.18-.58-.3-1.16-.48-1.7-.19-.58-.38-1.14-.57-1.68-.2-.58-.32-1.16-.51-1.7-.21-.58-.42-1.14-.61-1.66-.22-.59-.51-1.11-.71-1.62-.24-.6-.41-1.16-.62-1.66-.26-.62-.64-1.1-.84-1.56-.35-.79-.46-1.4-.6-1.67-.06-.13-.25-.21-.39-.22-.87-.06-.88.03-1.75-.04-.87-.06-.86-.23-1.74-.29s-.88.06-1.76,0-.88,0-1.75-.07c-.87-.06-.87-.05-1.75-.11s-.87-.09-1.75-.15-.86-.2-1.74-.27c-.87-.06-.88.08-1.76.01s-.87-.06-1.75-.12-.87-.1-1.74-.16-.87-.12-1.74-.19-.88.05-1.75-.01-.86-.24-1.73-.31-.88,0-1.75-.07-.87-.12-1.74-.18-.88.08-1.76.02-.88,0-1.75-.07-.87-.17-1.74-.24-.88.03-1.75-.03-.87-.15-1.74-.21-.88.04-1.75-.03-.87-.11-1.74-.17c-.87-.06-.87-.17-1.74-.23s-.88-.03-1.75-.09-.88.05-1.76,0-.87-.15-1.74-.22-.87-.08-1.75-.14-.88-.03-1.75-.09-.87-.15-1.74-.22c-.87-.06-.88.06-1.76,0s-.87-.18-1.74-.24-.88-.04-1.75-.1c-.87-.06-.88.08-1.76.02s-.87-.17-1.74-.23-.88,0-1.75-.05c-.87-.06-.88-.04-1.75-.11s-.87-.09-1.75-.15-.86-.22-1.74-.28c-.31-.02-.57.41-.43.69.18.37.5.87.8,1.57.21.47.35,1.05.6,1.66.21.5.51,1.01.74,1.6.2.51.34,1.09.56,1.67.2.52.48,1.04.68,1.62.19.53.29,1.12.49,1.69.18.54.43,1.07.62,1.65.18.54.36,1.1.54,1.68.17.55.23,1.14.4,1.72s.4,1.09.57,1.67.22,1.14.38,1.72.48,1.08.62,1.65.13,1.17.27,1.75.32,1.12.46,1.7.35,1.12.48,1.7.14,1.16.26,1.74.24,1.14.36,1.72.38,1.11.49,1.7.04,1.18.14,1.76.32,1.13.42,1.71.14,1.16.23,1.75.15,1.16.23,1.74.15,1.16.24,1.74.19,1.15.27,1.74.13,1.16.2,1.75.27,1.15.33,1.73.06,1.17.12,1.76.16,1.16.21,1.75-.04,1.18,0,1.77.18,1.16.22,1.75.1,1.17.13,1.76.11,1.17.14,1.76-.01,1.17.01,1.76.12,1.17.14,1.76.04,1.17.06,1.76-.04,1.17-.03,1.76.1,1.17.11,1.76-.03,1.17-.03,1.76-.11,1.17-.11,1.76.06,1.17.05,1.76.06,1.17.04,1.76-.08,1.17-.1,1.76-.17,1.17-.19,1.76.06,1.17.03,1.76-.18,1.16-.22,1.75.09,1.18.05,1.77c-.02.22.06.45.28.47.88.06.88,0,1.76.05.88.06.87.2,1.74.26s.88.01,1.75.07.88-.05,1.76,0,.87.12,1.75.18c.88.06.87.07,1.75.13s.88.01,1.75.08.88.05,1.75.11.88.04,1.75.11.87.08,1.75.14.87.12,1.75.18.87.06,1.75.13.87.14,1.74.2.88-.05,1.76.02.87.14,1.74.2.88.03,1.75.1.87.14,1.74.2.88.05,1.75.11.89-.09,1.76-.03.87.1,1.75.16.87.11,1.75.17.87.11,1.75.18.88-.01,1.76.05.88.04,1.75.1c.88.06.87.14,1.75.21s.88,0,1.75.07.87.16,1.74.22.88.03,1.75.09c.88.06.88.04,1.75.1s.88.02,1.75.08.87.11,1.75.17c.88.06.88-.03,1.76.03s.86.24,1.74.3.88.03,1.75.09.88.06,1.75.13.88.06,1.75.13.89-.06,1.76,0,.87.17,1.75.23c.23.02.4-.22.42-.44Z"/><path class="cls-11" d="M1499.89,717.54c.25-.53.61-1.01.87-1.54s.48-1.07.75-1.6.48-1.07.76-1.6.54-1.04.82-1.56.69-.96.99-1.47.51-1.06.81-1.57.68-.96.99-1.46.51-1.07.82-1.57.71-.94,1.03-1.44.58-1.03.9-1.52.62-1,.95-1.49.73-.93,1.06-1.41.63-.99.97-1.47.69-.95,1.04-1.43.69-.95,1.04-1.42.76-.9,1.12-1.37.67-.97,1.03-1.43.64-.99,1-1.46.72-.93,1.08-1.39.8-.87,1.17-1.33.64-1,1.01-1.45.87-.81,1.24-1.27.67-.97,1.05-1.42.8-.87,1.18-1.32.65-1,1.03-1.45.78-.88,1.17-1.33.84-.83,1.23-1.27.76-.91,1.15-1.34.85-.83,1.23-1.26.74-.92,1.13-1.36.72-.94,1.12-1.37.9-.78,1.29-1.21.77-.9,1.17-1.33.85-.83,1.25-1.25c.41-.43.8-.87,1.2-1.29s.72-.95,1.12-1.37.94-.74,1.34-1.16.83-.84,1.24-1.26.74-.93,1.15-1.35.84-.84,1.24-1.25.93-.75,1.34-1.16c.43-.43.84-.85,1.25-1.25.43-.43.76-.93,1.17-1.33.44-.43.91-.79,1.31-1.18.44-.43.88-.82,1.29-1.2.45-.43.8-.92,1.2-1.3.46-.44.92-.82,1.31-1.18.49-.46.91-.88,1.28-1.22.65-.6,1.07-1.03,1.28-1.22.08-.07.26-.09.37-.08.89.06.89.07,1.78.13s.89.08,1.78.14.88.13,1.77.19c.89.06.89.12,1.77.18.89.06.89.05,1.78.11s.9-.04,1.79.02.88.15,1.77.21.89.1,1.78.16.9-.13,1.79-.07.88.25,1.76.31.89.02,1.78.09.9-.05,1.79.01.88.21,1.77.27.89,0,1.78.06.89,0,1.78.07.89.04,1.78.1.88.22,1.77.28.9-.11,1.79-.05c.89.06.88.14,1.77.2.89.06.89.1,1.78.16s.89.04,1.78.1c.89.06.89-.02,1.78.05s.88.17,1.77.24.89.12,1.78.18.89.07,1.78.13.9-.08,1.79-.02.88.14,1.77.2.89,0,1.78.06.89.09,1.78.15.89.01,1.78.07.88.16,1.77.22c.89.06.89.11,1.77.18.89.06.89.02,1.78.09s.89.06,1.78.13.9-.05,1.79.01.88.23,1.77.29.89,0,1.78.06.9-.04,1.79.02.89.08,1.78.15.88.17,1.77.23c.37.03.56.5.26.73-.36.28-.85.62-1.41,1.06-.41.32-.88.69-1.39,1.1-.43.34-.86.75-1.35,1.15-.43.35-.93.68-1.4,1.08-.44.36-.93.69-1.4,1.08-.44.37-.82.83-1.28,1.23-.44.37-.97.66-1.43,1.06s-.88.77-1.33,1.17-.9.75-1.35,1.15-.84.81-1.29,1.21-.86.8-1.3,1.2-.81.85-1.25,1.25-.88.77-1.32,1.18-.86.8-1.3,1.21-.81.85-1.24,1.27-.94.72-1.37,1.14-.78.89-1.2,1.31-.84.82-1.26,1.24-.88.78-1.3,1.21-.7.96-1.11,1.39-.93.74-1.33,1.18-.7.96-1.1,1.39-.78.88-1.17,1.32-.83.84-1.22,1.28-.76.9-1.15,1.35-.89.79-1.27,1.24-.71.94-1.09,1.4-.7.95-1.07,1.41-.74.92-1.11,1.38-.85.83-1.21,1.3-.65.99-1.01,1.46c-.36.47-.64.99-.99,1.47s-.81.87-1.16,1.35-.72.94-1.05,1.43-.61,1.02-.94,1.51-.6,1.02-.92,1.51-.65.98-.97,1.48-.65.99-.95,1.49-.62,1.01-.92,1.52-.52,1.06-.8,1.58c-.28.52-.69.97-.96,1.5s-.42,1.11-.68,1.64-.49,1.08-.73,1.61-.59,1.03-.82,1.57-.49,1.08-.71,1.63-.25,1.17-.45,1.72-.42,1.11-.6,1.66-.42,1.11-.57,1.67-.32,1.14-.45,1.71c-.05.19-.21.32-.41.3-.87-.06-.87-.01-1.75-.07s-.87-.02-1.75-.09-.87-.14-1.74-.2-.87-.09-1.74-.15-.87-.08-1.74-.14-.88.05-1.75-.01-.87-.04-1.74-.1-.87-.08-1.74-.14-.86-.22-1.73-.28-.87-.02-1.75-.08-.88.08-1.75.02-.86-.22-1.73-.28-.88.04-1.75-.02-.86-.18-1.73-.25-.88.11-1.75.05-.86-.18-1.73-.24-.88.04-1.75-.02-.87-.15-1.74-.21c-.87-.06-.87-.13-1.74-.19s-.87-.07-1.74-.14-.88.01-1.75-.05-.87-.05-1.74-.11-.87-.05-1.74-.11-.87-.01-1.75-.08-.87-.11-1.74-.18c-.87-.06-.88,0-1.75-.06s-.86-.24-1.73-.3c-.87-.06-.87-.02-1.75-.08s-.87-.06-1.74-.12-.87-.1-1.74-.16-.88.12-1.76.05-.86-.25-1.73-.31-.88,0-1.75-.06-.88.03-1.75-.03-.86-.2-1.73-.26-.88,0-1.75-.07-.87-.15-1.74-.21c-.87-.06-.88.02-1.75-.05s-.87-.07-1.74-.13c-.87-.06-.88.01-1.75-.05s-.86-.19-1.74-.25c-.28-.02-.51-.25-.39-.51Z"/><path class="cls-14" d="M1499.89,717.56c.23-.54.57-1.03.83-1.58s.33-1.15.6-1.69.58-1.03.87-1.55.61-1.01.91-1.53.7-.95,1.02-1.46.55-1.05.88-1.55.66-.98,1-1.47.69-.96,1.04-1.44.66-.98,1.02-1.46.65-.99,1.02-1.46.8-.88,1.17-1.34.76-.91,1.14-1.37.73-.93,1.11-1.39.79-.88,1.18-1.33.78-.9,1.17-1.34.83-.85,1.23-1.29.8-.88,1.2-1.31.73-.94,1.13-1.38.77-.9,1.19-1.33.96-.72,1.38-1.15.81-.87,1.23-1.29.75-.93,1.17-1.35.93-.75,1.36-1.16.76-.93,1.19-1.34.89-.79,1.32-1.2.93-.75,1.36-1.15.82-.87,1.25-1.27.95-.73,1.38-1.13.83-.86,1.27-1.25.87-.81,1.31-1.21.88-.81,1.32-1.2.88-.81,1.32-1.2,1.01-.66,1.46-1.04.86-.83,1.31-1.22.88-.81,1.33-1.19.92-.77,1.37-1.14.9-.78,1.36-1.15.94-.74,1.39-1.11.95-.74,1.4-1.1,1.01-.66,1.47-1.02.87-.83,1.33-1.19.98-.71,1.43-1.06c.48-.38.97-.71,1.43-1.06.49-.38.94-.76,1.4-1.11.49-.38,1.01-.67,1.46-1.02.5-.38.93-.79,1.38-1.13.52-.39.92-.84,1.36-1.16.55-.4,1.06-.72,1.47-1.01.74-.53,1.32-.77,1.53-.92.08-.05.12-.22.21-.22.89.06.88.16,1.77.22s.89-.03,1.78.03.88.15,1.77.21c.89.06.88.09,1.77.15s.88.1,1.77.16.9-.07,1.78,0,.88.14,1.77.21.88.15,1.77.21.9-.12,1.79-.06.88.21,1.76.27.89.05,1.77.12.9-.07,1.78,0c.89.06.88.19,1.76.25s.89,0,1.78.06.88.16,1.77.23.89.04,1.77.11.89.02,1.78.08.89.05,1.77.12.88.15,1.77.21.9-.06,1.78,0,.88.11,1.77.18c.89.06.88.12,1.77.18s.89.02,1.78.08.9-.06,1.78,0,.88.18,1.76.24.89.08,1.77.14.89-.02,1.78.04.88.21,1.76.27.89-.03,1.78.04c.89.06.89,0,1.78.07s.88.14,1.77.21.89-.03,1.78.04.89.08,1.77.15.88.2,1.76.26.89-.05,1.78.02.89.04,1.78.11.88.13,1.77.19.9-.05,1.78,0,.88.16,1.77.22.88.12,1.77.18c.4.03.49.42.14.62-.41.24-.85.67-1.46,1.04-.46.28-1,.53-1.55.88-.47.29-1.02.53-1.56.87-.48.3-.89.76-1.41,1.1-.48.31-1.06.51-1.58.84-.48.32-.94.7-1.45,1.04-.48.32-.98.65-1.48.99s-.91.76-1.41,1.1-1.02.59-1.52.94-1,.62-1.5.97-.96.69-1.45,1.04-.87.82-1.35,1.17-.96.69-1.44,1.05-.98.66-1.46,1.03-.96.69-1.44,1.05-.87.81-1.34,1.18-.98.68-1.44,1.05-.88.8-1.34,1.17-.94.73-1.4,1.11-.99.67-1.44,1.06-.94.72-1.4,1.11-.78.91-1.23,1.31-.95.72-1.39,1.12-.92.75-1.36,1.15-.88.8-1.31,1.21-.76.92-1.19,1.34-.86.82-1.28,1.24-.91.77-1.33,1.19-.8.88-1.22,1.31-.82.86-1.23,1.3-.79.89-1.19,1.32-.79.89-1.19,1.33-.83.86-1.21,1.31-.76.92-1.14,1.37-.7.96-1.07,1.43-.8.89-1.16,1.36-.68.98-1.03,1.45-.79.9-1.13,1.39-.64,1.01-.96,1.5-.63,1.01-.94,1.51-.54,1.07-.84,1.58-.76.94-1.04,1.46-.55,1.06-.82,1.59-.56,1.06-.81,1.59-.39,1.13-.62,1.68-.57,1.06-.78,1.61-.28,1.17-.47,1.73-.35,1.14-.52,1.7-.49,1.1-.63,1.68c-.05.19-.12.26-.32.25-.87-.06-.88.03-1.75-.03s-.88.02-1.75-.04c-.87-.06-.87-.06-1.74-.13s-.87-.1-1.74-.16-.87-.15-1.74-.21c-.87-.06-.87-.02-1.75-.08s-.87-.05-1.74-.11-.87-.11-1.74-.17-.88.06-1.75,0-.87-.07-1.74-.13-.87-.11-1.74-.17-.88,0-1.75-.07-.86-.23-1.73-.29-.88.09-1.75.03-.87-.07-1.74-.13-.87-.11-1.74-.17-.86-.17-1.73-.23-.87-.04-1.74-.1-.88.07-1.75,0c-.87-.06-.87-.13-1.74-.19s-.88.03-1.75-.03-.87-.14-1.74-.21-.87-.02-1.75-.08-.86-.17-1.74-.24-.87-.05-1.74-.11-.87-.04-1.74-.1-.88.04-1.75-.02-.86-.17-1.74-.23-.87-.07-1.74-.13-.87-.05-1.74-.12-.88.06-1.75,0-.86-.24-1.73-.3-.87-.08-1.74-.14c-.87-.06-.89.13-1.76.07s-.86-.21-1.73-.27-.87-.02-1.75-.09-.88,0-1.75-.07-.87-.15-1.74-.22-.88.05-1.75,0-.86-.22-1.74-.28-.88.01-1.75-.05c-.28-.02-.47-.29-.37-.55Z"/><path class="cls-10" d="M1576.86,722.91c.23-.51.35-1.11.64-1.65.27-.5.61-.98.92-1.5.3-.49.65-.96.98-1.46.32-.48.63-.97.98-1.46s.64-.97,1-1.45.84-.82,1.21-1.29.65-.97,1.03-1.43.74-.9,1.13-1.35.78-.87,1.17-1.32.74-.9,1.14-1.34.77-.88,1.17-1.31.86-.79,1.26-1.23.75-.9,1.16-1.33.79-.86,1.2-1.28.87-.79,1.28-1.21.74-.92,1.15-1.34c.41-.41.89-.76,1.31-1.18s.77-.89,1.19-1.3.93-.72,1.35-1.13.88-.78,1.3-1.18.78-.88,1.21-1.29.84-.81,1.27-1.21.95-.7,1.38-1.1.75-.92,1.18-1.31.9-.75,1.34-1.15.91-.75,1.34-1.14.83-.84,1.26-1.23.86-.81,1.3-1.19.9-.76,1.34-1.15.96-.7,1.4-1.08.8-.88,1.24-1.26.98-.67,1.42-1.05.92-.74,1.36-1.12.88-.78,1.33-1.16.92-.74,1.36-1.11.84-.84,1.28-1.21.88-.79,1.33-1.16.94-.72,1.39-1.09.93-.74,1.37-1.11c.47-.38.85-.84,1.29-1.2.47-.38.96-.71,1.4-1.07.47-.38.93-.76,1.36-1.11.48-.39,1-.68,1.43-1.03.49-.39.91-.81,1.34-1.14.51-.4.91-.84,1.32-1.16.56-.44,1.1-.71,1.46-.99.29-.23.12-.67-.25-.69-.88-.06-.88-.12-1.76-.18-.88-.06-.89.03-1.77-.03s-.87-.23-1.75-.29-.89.06-1.77,0-.87-.18-1.75-.25-.88,0-1.76-.06-.87-.14-1.75-.2-.89.09-1.77.03-.87-.21-1.75-.27-.88-.06-1.76-.13-.88-.1-1.76-.16-.88-.03-1.76-.09-.88,0-1.76-.06-.88-.1-1.76-.17c-.88-.06-.88-.02-1.76-.08s-.88-.1-1.76-.17-.88-.03-1.76-.09c-.88-.06-.88-.09-1.76-.16s-.88-.01-1.76-.07-.88-.02-1.76-.09-.87-.15-1.75-.21-.89.01-1.77-.05-.87-.22-1.75-.28-.89.03-1.77-.03-.89.02-1.77-.04-.88-.07-1.76-.13-.87-.16-1.75-.23-.88-.13-1.76-.19-.88-.02-1.76-.09-.88-.1-1.76-.16-.88-.03-1.76-.1-.88-.06-1.76-.12-.88-.04-1.76-.1-.88,0-1.76-.06-.88-.07-1.76-.13-.88-.11-1.76-.17-.88-.02-1.76-.08-.87-.16-1.75-.23-.88-.06-1.76-.12-.88-.03-1.76-.09-.88-.1-1.76-.17-.89.1-1.77.04c-.1,0-.19-.06-.27,0-.21.17-.69.53-1.39,1.09-.39.32-.86.67-1.39,1.09-.42.34-.88.71-1.37,1.12-.43.35-.89.72-1.37,1.12-.43.36-.91.71-1.38,1.1-.44.36-.84.8-1.31,1.19-.44.37-.94.68-1.4,1.07-.44.37-.9.74-1.36,1.13s-.8.86-1.26,1.24-.98.64-1.44,1.03-.85.8-1.31,1.19c-.44.38-.83.83-1.29,1.21s-.89.76-1.34,1.15-.95.69-1.4,1.08-.8.87-1.25,1.25-.99.65-1.44,1.04-.83.83-1.28,1.22-.91.74-1.36,1.13-.79.88-1.23,1.28-.97.68-1.41,1.07-.93.73-1.37,1.12-.78.89-1.22,1.28-.96.69-1.39,1.09-.85.82-1.28,1.21c-.44.4-.77.91-1.2,1.3s-.98.68-1.41,1.08-.87.79-1.3,1.19-.76.92-1.19,1.32-.92.74-1.35,1.14-.81.86-1.23,1.27-.93.74-1.35,1.14-.78.89-1.2,1.3-.81.86-1.23,1.27-.92.75-1.33,1.17-.83.84-1.25,1.25-.75.92-1.16,1.34-.95.72-1.36,1.14-.8.87-1.21,1.29-.7.97-1.1,1.39c-.41.44-.9.78-1.3,1.21s-.79.88-1.18,1.31-.79.89-1.16,1.33-.74.93-1.11,1.37-.69.97-1.05,1.42c-.38.47-.84.86-1.19,1.31-.37.48-.71.96-1.04,1.42-.36.49-.62,1.03-.93,1.5"/><path class="cls-1" d="M1559.65,664.62c-.7.55-.66.6-1.36,1.15-.7.55-.72.52-1.42,1.06s-.63.63-1.33,1.18-.7.55-1.4,1.1-.7.55-1.39,1.1c-.7.55-.73.51-1.43,1.06s-.71.54-1.4,1.09-.68.57-1.38,1.12-.76.47-1.46,1.02-.66.59-1.36,1.14c-.7.55-.63.63-1.33,1.18s-.69.56-1.38,1.11c-.7.55-.73.5-1.43,1.05s-.78.45-1.47,1-.7.54-1.4,1.09-.6.67-1.3,1.22-.77.46-1.47,1.01-.73.51-1.42,1.06-.61.66-1.3,1.21-.68.57-1.38,1.12-.76.47-1.46,1.02-.7.55-1.4,1.09-.66.6-1.36,1.14-.75.49-1.44,1.04-.64.63-1.33,1.18-.69.55-1.39,1.1-.76.47-1.46,1.02-.7.54-1.4,1.09-.61.66-1.31,1.21-.8.42-1.5.97-.71.54-1.4,1.09-.64.62-1.34,1.17c-.7.55-.63.63-1.33,1.18s-.73.5-1.43,1.05c-.7.55-.67.59-1.36,1.14s-.73.5-1.43,1.05-.71.53-1.41,1.08c-.7.55-.74.49-1.44,1.04s-.67.58-1.37,1.13-.7.55-1.39,1.1-.71.54-1.41,1.09-.66.6-1.36,1.15-.68.57-1.38,1.12c-.53.42-1.09.85-1.38,1.45s-.46,1.3-.45,1.97c0,.67-.02,1.24-.21,1.73-.22.6-.48,1.16-.88,1.55-.44.44-.98.78-1.48,1.02-.38.18-.31.7.1.73.89.06.89.05,1.78.11s.89.06,1.78.13.9-.03,1.79.04c.89.06.88.15,1.77.22s.89.1,1.78.16c.89.06.9-.04,1.79.02.89.06.88.18,1.77.24s.89.07,1.78.13.89.03,1.78.09.89.03,1.78.1.88.14,1.77.2.9-.05,1.79.01.89.02,1.78.08.89.05,1.78.11.88.16,1.77.22.89.1,1.78.16.9-.05,1.79.01.89.05,1.78.12.89.06,1.78.13q.89.06,1.78.13c.89.06.89.12,1.78.18s.88.16,1.77.23.89.07,1.78.14.89,0,1.78.06.89.08,1.78.15.89,0,1.78.07.89.12,1.78.18.89.09,1.78.16.89.09,1.78.16.9-.01,1.79.05.89.1,1.78.17.89.12,1.78.18.9-.09,1.79-.03.89.02,1.78.09.89.14,1.78.2.9-.01,1.79.05.88.2,1.77.26.89.12,1.78.18.9-.12,1.79-.06.88.16,1.77.22.89,0,1.79.07c.89.06.89.11,1.78.17s.9,0,1.79.06.89.07,1.78.13.89.1,1.78.16.89.07,1.78.13c.59.04,1.13.06,1.61-.07.55-.14,1.06-.37,1.48-.68.44-.32.74-.79,1.05-1.23s.68-.87.89-1.35c.23-.53.28-1.1.41-1.57.19-.73.29-1.32.31-1.58.01-.1.11-.17.18-.24.64-.61.61-.64,1.25-1.25s.7-.54,1.34-1.15.65-.6,1.28-1.21.62-.63,1.26-1.24.66-.58,1.3-1.19.52-.74,1.15-1.35.65-.59,1.29-1.2c.64-.61.68-.56,1.32-1.17s.67-.58,1.31-1.19.54-.71,1.18-1.32.73-.51,1.37-1.12.57-.69,1.2-1.3.71-.54,1.34-1.15.57-.68,1.2-1.29.69-.56,1.33-1.17.69-.56,1.32-1.17.64-.61,1.28-1.22.57-.68,1.21-1.29.69-.56,1.32-1.17.53-.72,1.17-1.33.63-.62,1.27-1.23c.64-.61.77-.48,1.4-1.09s.51-.74,1.15-1.35c.64-.61.73-.51,1.37-1.12s.56-.69,1.2-1.3.73-.52,1.36-1.13.52-.73,1.16-1.35.69-.56,1.32-1.17.59-.66,1.22-1.27.63-.62,1.27-1.23.7-.55,1.33-1.16.62-.63,1.26-1.24.65-.59,1.29-1.2.61-.64,1.25-1.25.72-.53,1.36-1.14.55-.71,1.18-1.32.64-.61,1.28-1.22.7-.55,1.34-1.16.62-.64,1.25-1.25c.64-.61.69-.56,1.33-1.17.26-.24.07-.7-.29-.73-.88-.06-.88-.05-1.76-.12s-.89.02-1.77-.04-.88-.11-1.76-.17-.87-.15-1.76-.22-.89.03-1.77-.03-.87-.16-1.76-.22-.88-.11-1.76-.17-.89.08-1.77.01-.88-.15-1.76-.21-.88-.04-1.76-.11-.88-.11-1.76-.17c-.88-.06-.88-.11-1.76-.17s-.88-.06-1.76-.12-.89.02-1.77-.04-.88-.07-1.76-.13-.88-.08-1.76-.15-.88-.06-1.76-.12-.88-.07-1.76-.13-.88-.07-1.76-.13-.88-.06-1.76-.12-.88-.09-1.76-.15-.89.02-1.77-.05-.89.02-1.77-.04-.88-.12-1.76-.18-.89,0-1.77-.06-.88-.09-1.76-.16-.87-.23-1.75-.29-.89.02-1.77-.04-.88-.08-1.76-.14-.88-.04-1.77-.1-.89.03-1.77-.03c-.88-.06-.88-.12-1.76-.18s-.89-.02-1.77-.08-.88-.15-1.76-.21-.88-.05-1.76-.12-.89,0-1.77-.06-.88-.07-1.76-.13-.88-.14-1.76-.2-.89.05-1.77-.01-.88-.16-1.76-.22-.88-.17-1.76-.23-.88-.05-1.77-.11c-.1,0-.24.07-.32.13Z"/><path class="cls-6" d="M93.16,409.57l77.05,69.64c.57.51,1.44.49,1.98-.06l45.33-49.33c.96-1.03.9-2.65-.15-3.59l-75.7-63.13c-.91-.81-2.3-.76-3.15.12l-45.36,46.34Z"/><path class="cls-5" d="M88.79,396.61s-4.52,5.08,1.13,12.53l80.66,70.38-1.65-18.48-72.4-60.48"/><path class="cls-12" d="M213.19,416.02s-.38,6.77,3.19,11.49l-45.81,52.01s-4.25-4.92-2.74-12.8l45.36-50.69Z"/><path class="cls-6" d="M88.79,396.61l79.05,70.11,45.31-49.85c.96-1.03.9-2.65-.15-3.59l-74.24-61.78c-2.08-1.88-5.38-.58-6.23.3l-43.73,44.82Z"/><path class="cls-4" d="M169.06,468.52c-.11.04-.24.02-.33-.06-.13-.12-.14-.33-.02-.46l42.25-46.82c.12-.13.33-.14.46-.02.13.12.14.33.02.46l-42.25,46.82s-.08.07-.13.09Z"/><path class="cls-4" d="M169.91,470.75c-.11.04-.24.02-.33-.06-.13-.12-.14-.33-.02-.46l42.25-46.82c.12-.13.33-.14.46-.02.13.12.14.33.02.46l-42.25,46.82s-.08.07-.13.09Z"/><path class="cls-4" d="M170.51,473.15c-.11.04-.24.02-.33-.06-.13-.12-.14-.33-.02-.46l42.25-46.82c.12-.13.33-.14.46-.02.13.12.14.33.02.46l-42.25,46.82s-.08.07-.13.09Z"/><path class="cls-4" d="M171.48,475.69c-.11.04-.24.02-.33-.06-.13-.12-.14-.33-.02-.46l42.25-46.82c.12-.13.33-.14.46-.02.13.12.14.33.02.46l-42.25,46.82s-.08.07-.13.09Z"/></g></svg>