<?xml version="1.0" encoding="UTF-8"?><svg id="_레이어_2" xmlns="http://www.w3.org/2000/svg" xmlns:xlink="http://www.w3.org/1999/xlink" viewBox="0 0 1920 1080"><defs><style>.cls-1{fill:none;}.cls-2{fill:url(#_무제_그라디언트_17);}.cls-3{fill:url(#_무제_그라디언트_18);}.cls-4{fill:url(#_무제_그라디언트_17-3);}.cls-5{fill:url(#_무제_그라디언트_17-2);}.cls-6{fill:url(#_무제_그라디언트_20);}.cls-7{fill:url(#_무제_그라디언트_18-2);}</style><linearGradient id="_무제_그라디언트_17" x1="1549.67" y1="983.58" x2="1549.67" y2="743.58" gradientUnits="userSpaceOnUse"><stop offset="0" stop-color="#fff" stop-opacity="0"/><stop offset=".5" stop-color="#fff" stop-opacity=".2"/><stop offset="1" stop-color="#fff" stop-opacity=".6"/></linearGradient><linearGradient id="_무제_그라디언트_17-2" x1="290.81" y1="354.98" x2="290.81" y2="234.98" xlink:href="#_무제_그라디언트_17"/><linearGradient id="_무제_그라디언트_17-3" x1="1609.42" y1="570.17" x2="1609.42" y2="540.17" xlink:href="#_무제_그라디언트_17"/><linearGradient id="_무제_그라디언트_20" x1="767.32" y1="822.74" x2="767.32" y2="776.74" gradientUnits="userSpaceOnUse"><stop offset="0" stop-color="#fff" stop-opacity="0"/><stop offset=".5" stop-color="#fff" stop-opacity=".2"/><stop offset="1" stop-color="#fff" stop-opacity=".3"/></linearGradient><linearGradient id="_무제_그라디언트_18" x1="67.61" y1="740.17" x2="67.61" y2="580.17" gradientUnits="userSpaceOnUse"><stop offset="0" stop-color="#fff" stop-opacity="0"/><stop offset=".5" stop-color="#fff" stop-opacity=".2"/><stop offset="1" stop-color="#fff" stop-opacity=".4"/></linearGradient><linearGradient id="_무제_그라디언트_18-2" x1="1826.94" y1="676.16" x2="1826.94" y2="436.16" xlink:href="#_무제_그라디언트_18"/></defs><g id="_레이어_1-2"><rect class="cls-1" width="1920" height="1080"/><circle class="cls-2" cx="1549.67" cy="863.58" r="120"/><circle class="cls-5" cx="290.81" cy="294.98" r="60"/><circle class="cls-4" cx="1609.42" cy="555.17" r="15"/><circle class="cls-6" cx="767.32" cy="799.74" r="23"/><path class="cls-3" d="M135.22,660.17c0-44.18-35.82-80-80-80-21.42,0-40.86,8.44-55.22,22.15v115.71c14.36,13.71,33.8,22.15,55.22,22.15,44.18,0,80-35.82,80-80Z"/><path class="cls-7" d="M1853.87,436.16c-66.27,0-120,53.73-120,120s53.73,120,120,120c24.44,0,47.17-7.31,66.13-19.86v-200.28c-18.96-12.55-41.69-19.86-66.13-19.86ZM1853.87,606.16c-27.61,0-50-22.39-50-50s22.39-50,50-50,50,22.39,50,50-22.39,50-50,50Z"/></g></svg>