<svg width="128" height="64" viewBox="0 0 128 64" fill="none" xmlns="http://www.w3.org/2000/svg">
<g clip-path="url(#clip0_1_3)">
<path d="M95.7616 45.0868C96.2716 45.0073 96.6634 44.769 96.9369 44.3717C97.1845 44.0095 97.2769 43.6307 97.2159 43.2315C97.1512 42.8231 96.9405 42.4868 96.5821 42.2263C96.1903 41.9324 95.7339 41.8253 95.2109 41.9084C94.7009 41.9879 94.3091 42.2244 94.0338 42.6162C93.7843 42.9728 93.6919 43.3498 93.7548 43.7489C93.8195 44.1592 94.0301 44.4973 94.3905 44.7634C94.7859 45.0628 95.2442 45.17 95.7634 45.0905L95.7616 45.0868Z" fill="white"/>
<path d="M92.3153 41.5555L89.4843 41.9177C89.6174 43.2407 89.7689 44.5417 89.9371 45.8167C89.95 45.9017 89.8983 45.9516 89.7837 45.9701C89.7523 45.9756 89.6322 45.9719 89.4252 45.9609C89.2164 45.9498 89.0538 45.9553 88.9337 45.9738C87.5237 46.1937 86.4723 46.8053 85.7793 47.8051C85.1603 48.7031 84.9385 49.7065 85.1104 50.8134C85.2656 51.8113 85.6832 52.6318 86.3596 53.273C87.1745 54.0435 88.2001 54.3337 89.4381 54.1396C89.8853 54.0694 90.2993 53.9105 90.6781 53.6629C90.6984 53.6481 90.728 53.6389 90.7686 53.6333C90.9276 53.6074 91.0144 53.7848 91.0292 54.1655C91.0514 54.5924 91.0939 54.8215 91.1567 54.8548L93.6421 54.4501C93.6587 54.4371 93.6643 54.415 93.6587 54.3836L92.3708 41.6349C92.3652 41.6035 92.3486 41.5776 92.3172 41.5536L92.3153 41.5555ZM89.6821 52.1217C88.4606 52.3102 87.7603 51.8261 87.5773 50.673C87.3537 49.2612 88.1539 48.4149 89.9759 48.134C90.1182 48.1118 90.1976 48.158 90.2161 48.2707L90.6929 51.7226C90.7113 51.8815 90.375 52.0164 89.6821 52.1217Z" fill="white"/>
<path d="M97.3841 46.0107L94.6325 46.408L94.6011 46.4284C94.9023 48.7585 95.222 51.0703 95.5602 53.3617C95.5639 53.382 95.5805 53.4023 95.6101 53.4189L98.308 52.981C98.3136 52.9533 98.3136 52.9311 98.3117 52.9163L97.434 46.0662C97.434 46.044 97.4192 46.0255 97.3841 46.0089V46.0107Z" fill="white"/>
<path d="M75.8413 54.1526C75.0929 54.5609 74.4425 54.8067 73.8936 54.8917C72.8921 55.0488 72.164 54.7587 71.7076 54.0232C71.545 53.7645 71.4526 53.5686 71.4322 53.4374C71.4175 53.3376 71.4692 53.2804 71.5893 53.2674L75.1724 52.8369C75.298 52.7371 75.3775 52.4026 75.4108 51.8335C75.4366 51.3567 75.4311 50.9982 75.3923 50.7561C74.995 48.2134 73.7754 47.101 71.7316 47.4207C70.5027 47.6129 69.6786 48.4185 69.2554 49.8377C68.9487 50.8689 68.884 51.9573 69.0632 53.1011C69.2517 54.3078 69.7765 55.2447 70.6395 55.9099C71.6189 56.6602 72.8754 56.9152 74.4092 56.6749C74.6698 56.6343 75.019 56.5419 75.4551 56.3996C75.9947 56.2185 76.2663 56.0651 76.27 55.9413C76.2479 55.7935 76.1776 55.472 76.0649 54.973C75.9411 54.4427 75.8672 54.171 75.8413 54.1526ZM71.1994 52.118C71.1292 51.6635 71.168 51.22 71.3195 50.7894C71.5209 50.2165 71.8813 49.8895 72.3987 49.8082C73.0806 49.701 73.4834 50.041 73.6072 50.8264C73.707 51.4694 73.6405 51.815 73.4076 51.863L71.4027 52.24C71.2826 52.2585 71.216 52.2178 71.1994 52.118Z" fill="white"/>
<path d="M83.9499 49.3222C83.6376 47.3209 82.2941 46.5078 79.9178 46.8774C78.2694 47.1343 77.2272 48.2171 76.7948 50.1242C76.7893 50.1408 76.7819 50.1537 76.7726 50.1593C76.7819 50.1907 76.7985 50.2092 76.8225 50.2165L79.186 49.5162C79.2285 49.4349 79.2544 49.3702 79.2654 49.3259C79.465 48.8325 79.8254 48.5442 80.3428 48.4629C80.7234 48.4038 81.0542 48.4814 81.3332 48.6957C81.5864 48.8879 81.7342 49.13 81.7804 49.4238C81.847 49.8433 81.8229 50.0632 81.7121 50.0798C81.6049 50.0964 81.4349 50.1094 81.1965 50.1205C80.96 50.1315 80.7844 50.1445 80.668 50.163C79.4262 50.357 78.4394 50.7229 77.7058 51.2625C76.8687 51.8889 76.5195 52.6502 76.6599 53.5483C76.7782 54.3041 77.1348 54.8548 77.7317 55.2003C78.3286 55.5459 79.1195 55.642 80.1025 55.4886C80.7548 55.387 81.4127 55.1689 82.0779 54.8326C82.1075 54.8178 82.1278 54.8086 82.1426 54.8067C82.2535 54.7901 82.3163 54.8252 82.3293 54.9139C82.3422 54.9971 82.3533 55.1301 82.3625 55.3075C82.3718 55.4867 82.3847 55.6198 82.3976 55.7085C82.4032 55.7455 82.4216 55.7695 82.4494 55.7806L84.5153 55.4424C84.5744 55.3851 84.5116 54.439 84.325 52.6077C84.155 50.9391 84.0293 49.8433 83.948 49.3185L83.9499 49.3222ZM81.1836 53.8532C80.2393 54.001 79.7182 53.7571 79.6184 53.1214C79.563 52.7648 79.6794 52.4617 79.9676 52.2123C80.2356 51.9831 80.6107 51.8298 81.0949 51.754C81.7102 51.6579 82.0244 51.669 82.0336 51.7854L82.2017 53.4781C82.2147 53.6222 81.8765 53.746 81.1836 53.8551V53.8532Z" fill="white"/>
<path d="M68.1264 55.5477C67.0749 54.5554 66.5427 54.0232 66.5316 53.9493C66.5279 53.929 66.5427 53.8994 66.5723 53.8624C67.6921 52.6816 68.1374 51.3622 67.9083 49.9024C67.7494 48.8842 67.2671 48.0397 66.4632 47.3689C65.3508 46.4394 63.6785 46.1493 61.4444 46.4986C60.1139 46.7055 59.2675 46.9107 58.9035 47.1139C58.861 47.1361 58.8425 47.1601 58.8462 47.1878L60.6941 58.6781C60.6978 58.7039 60.7144 58.7261 60.7459 58.7427L63.3643 58.0646C63.3883 58.0442 63.3976 58.0165 63.392 57.9796L62.9855 55.204C62.9763 55.1135 63.0243 55.0599 63.1315 55.0432C63.1943 55.034 63.2461 55.0525 63.2904 55.0987L66.4522 57.8502L69.6915 57.2238C69.7155 57.2034 69.7248 57.1813 69.7211 57.1535C69.7081 57.0759 69.176 56.54 68.1245 55.5477H68.1264ZM64.9184 51.9794C64.5876 52.4617 63.6766 52.8054 62.9911 53.0143L62.9449 53.0216C62.8266 53.0401 62.7619 52.9995 62.7453 52.8978L62.2149 48.9544C62.2002 48.8528 62.2593 48.7918 62.3923 48.7696C62.6418 48.729 63.2996 48.729 63.5547 48.7641C64.5599 48.9175 65.1346 49.4755 65.2787 50.4383C65.3619 51.0019 65.2418 51.5156 64.9184 51.9776V51.9794Z" fill="white"/>
<path d="M112.374 39.9423C112.346 39.9737 112.339 40.0254 112.352 40.0993C112.358 40.1418 112.374 40.2121 112.402 40.31C112.428 40.4079 112.446 40.48 112.454 40.528C112.478 40.6851 112.431 40.7738 112.311 40.7923C112.245 40.8034 112.117 40.8071 111.933 40.8034C111.746 40.7997 111.604 40.8052 111.506 40.8219C110.131 41.0362 109.118 41.6091 108.464 42.5386C107.88 43.3664 107.673 44.3181 107.839 45.3954C108 46.4191 108.431 47.247 109.133 47.879C109.968 48.6311 111.025 48.9064 112.308 48.7068C112.507 48.6754 112.757 48.5996 113.058 48.4758C113.359 48.3539 113.527 48.2892 113.562 48.2837C113.683 48.2652 113.749 48.2984 113.762 48.3816L113.945 49.555C114.023 50.0539 113.895 50.466 113.559 50.7931C113.224 51.1202 112.723 51.3345 112.058 51.438C111.97 51.4509 111.836 51.462 111.657 51.4676C111.478 51.4731 111.347 51.4842 111.264 51.4971C111.238 51.5008 111.225 51.5249 111.227 51.5674L111.622 54.1027C111.65 54.2819 112.127 54.2986 113.054 54.1526C114.176 53.977 115.041 53.5095 115.649 52.7482C116.168 52.0922 116.447 51.3031 116.486 50.3829C116.506 49.8747 116.48 49.2815 116.406 48.6052C116.332 48.0194 116.26 47.4336 116.186 46.8478C115.926 44.769 115.691 43.0689 115.486 41.7458C115.261 40.3081 115.124 39.5708 115.072 39.5357L112.376 39.9404L112.374 39.9423ZM112.812 46.4967C111.739 46.6649 111.132 46.2972 110.992 45.3935C110.914 44.9002 111.022 44.477 111.312 44.1259C111.624 43.7434 112.103 43.5032 112.746 43.4015C112.853 43.3849 112.914 43.4181 112.932 43.5013L113.389 46.2454C113.405 46.3508 113.213 46.4339 112.814 46.4967H112.812Z" fill="white"/>
<path d="M103.344 43.3923C102.931 43.4569 102.566 43.6029 102.248 43.8302C102.046 43.9688 101.843 44.1628 101.636 44.4105C101.468 44.6082 101.363 44.7117 101.324 44.7172C101.2 44.7357 101.124 44.6655 101.1 44.501C101.093 44.4548 101.087 44.3754 101.084 44.2663C101.08 44.1573 101.074 44.0778 101.067 44.0316C101.054 43.9522 101.03 43.9023 100.995 43.882L98.4078 44.2867C98.3838 44.3125 98.3745 44.3347 98.3782 44.3569L99.7161 52.6687C99.7198 52.689 99.7364 52.7112 99.7678 52.7334L102.401 52.2733C102.408 52.2622 102.408 52.2363 102.403 52.2012L101.57 47.2969L101.564 47.2655C101.68 46.5263 102.141 46.0939 102.946 45.9682C103.689 45.8518 104.158 46.4302 104.356 47.7016C104.489 48.5516 104.696 49.9856 104.979 52.0016C104.984 52.0441 104.994 52.07 105.005 52.0792L107.575 51.8316C107.599 51.8057 107.61 51.7743 107.608 51.7374C107.35 49.324 107.178 47.8439 107.091 47.2913C106.636 44.3772 105.387 43.08 103.344 43.3978V43.3923Z" fill="white"/>
<path d="M46.3304 42.7677L53.3543 64L126.078 55.472L127.276 32.5636L46.3304 42.7658V42.7677ZM116.484 50.3866C116.445 51.3068 116.166 52.0959 115.647 52.7519C115.039 53.5132 114.174 53.9826 113.052 54.1563C112.127 54.3004 111.648 54.2838 111.62 54.1064L111.225 51.571C111.223 51.5285 111.234 51.5045 111.262 51.5008C111.347 51.4879 111.478 51.4787 111.655 51.4713C111.833 51.4657 111.968 51.4546 112.056 51.4417C112.722 51.3382 113.222 51.122 113.557 50.7968C113.891 50.4697 114.021 50.0576 113.943 49.5587L113.76 48.3853C113.747 48.3021 113.681 48.2689 113.561 48.2873C113.525 48.2929 113.357 48.3557 113.056 48.4795C112.755 48.6015 112.505 48.6791 112.306 48.7105C111.025 48.9101 109.966 48.6347 109.131 47.8826C108.429 47.2507 107.997 46.4228 107.838 45.3991C107.669 44.3218 107.878 43.3701 108.462 42.5422C109.116 41.6127 110.131 41.0399 111.504 40.8255C111.602 40.8108 111.744 40.8034 111.931 40.8071C112.117 40.8108 112.245 40.8071 112.31 40.796C112.43 40.7775 112.476 40.6888 112.452 40.5317C112.444 40.4855 112.428 40.4116 112.4 40.3137C112.374 40.2157 112.358 40.1455 112.35 40.103C112.339 40.0291 112.346 39.9774 112.372 39.9459L115.068 39.5413C115.118 39.5764 115.257 40.3137 115.482 41.7513C115.689 43.0744 115.922 44.7745 116.183 46.8534C116.257 47.4392 116.329 48.0249 116.403 48.6107C116.477 49.2871 116.502 49.8802 116.482 50.3884L116.484 50.3866ZM107.091 47.2858C107.178 47.8365 107.35 49.3185 107.609 51.7318C107.609 51.7688 107.599 51.8002 107.575 51.8261L105.005 52.0737C104.994 52.0644 104.986 52.0386 104.979 51.9961C104.696 49.98 104.487 48.5479 104.356 47.696C104.158 46.4247 103.687 45.8481 102.946 45.9627C102.142 46.0883 101.68 46.5208 101.564 47.2599L101.57 47.2913L102.403 52.1956C102.409 52.2326 102.409 52.2566 102.401 52.2677L99.7679 52.7278C99.7365 52.7057 99.7198 52.6835 99.7161 52.6632L98.3783 44.3513C98.3746 44.331 98.3857 44.307 98.4078 44.2811L100.995 43.8764C101.03 43.8986 101.054 43.9485 101.067 44.0261C101.074 44.0723 101.08 44.1518 101.084 44.2608C101.087 44.3698 101.093 44.4493 101.1 44.4955C101.126 44.6581 101.2 44.7301 101.324 44.7117C101.364 44.7061 101.468 44.6026 101.636 44.4049C101.843 44.1573 102.046 43.9651 102.248 43.8247C102.566 43.5974 102.931 43.4514 103.344 43.3867C105.387 43.067 106.637 44.3661 107.091 47.2802V47.2858ZM94.6326 46.408L97.3841 46.0107C97.4174 46.0274 97.434 46.0458 97.434 46.068L98.3117 52.9182C98.3136 52.9329 98.3117 52.9551 98.308 52.9828L95.6101 53.4208C95.5806 53.4042 95.5639 53.3857 95.5602 53.3635C95.2202 51.0721 94.9005 48.7604 94.6012 46.4302L94.6326 46.4099V46.408ZM94.3887 44.7597C94.0283 44.4936 93.8177 44.1554 93.753 43.7452C93.6902 43.3461 93.7844 42.9691 94.032 42.6125C94.3073 42.2207 94.6991 41.9842 95.2091 41.9047C95.7321 41.8234 96.1885 41.9287 96.5803 42.2225C96.9388 42.4831 97.1494 42.8194 97.2141 43.2278C97.2769 43.6269 97.1827 44.0076 96.9351 44.368C96.6616 44.7653 96.2698 45.0036 95.7598 45.0831C95.2405 45.1644 94.7841 45.0554 94.3868 44.756L94.3887 44.7597ZM89.4843 41.9176L92.3153 41.5555C92.3467 41.5776 92.3634 41.6054 92.3689 41.6368L93.6569 54.3854C93.6624 54.4168 93.6569 54.439 93.6403 54.4519L91.1548 54.8566C91.0902 54.8233 91.0477 54.5942 91.0273 54.1673C91.0144 53.7867 90.9275 53.6111 90.7668 53.6351C90.7261 53.6407 90.6966 53.6518 90.6762 53.6647C90.2974 53.9123 89.8835 54.0712 89.4363 54.1415C88.2001 54.3337 87.1726 54.0454 86.3577 53.2748C85.6814 52.6336 85.2638 51.8131 85.1085 50.8153C84.9348 49.7084 85.1584 48.705 85.7775 47.8069C86.4704 46.8053 87.5219 46.1955 88.9318 45.9756C89.0519 45.9571 89.2164 45.9534 89.4234 45.9627C89.6322 45.9738 89.7504 45.9756 89.7818 45.9719C89.8964 45.9534 89.9482 45.9036 89.9352 45.8186C89.7671 44.5435 89.6174 43.2426 89.4825 41.9195L89.4843 41.9176ZM83.9499 49.3222C84.0312 49.847 84.1569 50.9446 84.3269 52.6114C84.5135 54.4427 84.5763 55.3888 84.5172 55.4461L82.4513 55.7843C82.4217 55.7732 82.4051 55.7491 82.3995 55.7122C82.3847 55.6235 82.3736 55.4886 82.3644 55.3112C82.3552 55.1319 82.3441 55.0007 82.3311 54.9176C82.3164 54.8289 82.2554 54.7919 82.1445 54.8104C82.1316 54.8123 82.1094 54.8215 82.0798 54.8363C81.4146 55.1707 80.7567 55.3906 80.1044 55.4923C79.1195 55.6457 78.3304 55.5496 77.7336 55.204C77.1367 54.8585 76.7801 54.3078 76.6618 53.552C76.5214 52.6539 76.8706 51.8926 77.7077 51.2661C78.4413 50.7266 79.4281 50.3607 80.6699 50.1667C80.7844 50.1482 80.9618 50.1352 81.1984 50.1241C81.4349 50.1149 81.6068 50.1001 81.7139 50.0835C81.8248 50.0669 81.847 49.847 81.7823 49.4275C81.7361 49.1337 81.5864 48.8898 81.3351 48.6994C81.0561 48.4851 80.7253 48.4075 80.3447 48.4666C79.8254 48.5479 79.4669 48.8343 79.2673 49.3296C79.2562 49.3739 79.2304 49.4367 79.1879 49.5199L76.8244 50.2202C76.8004 50.2128 76.7838 50.1944 76.7745 50.163C76.7819 50.1556 76.7893 50.1445 76.7967 50.1278C77.2291 48.2208 78.2713 47.1379 79.9196 46.8811C82.296 46.5097 83.6395 47.3246 83.9517 49.3259L83.9499 49.3222ZM71.7076 54.0232C72.1622 54.7587 72.8921 55.0488 73.8937 54.8917C74.4425 54.8067 75.0929 54.5591 75.8413 54.1526C75.8672 54.171 75.9411 54.4427 76.0649 54.973C76.1795 55.472 76.2479 55.7935 76.27 55.9413C76.2663 56.0651 75.9947 56.2185 75.4551 56.3996C75.019 56.5419 74.6698 56.6343 74.4092 56.6749C72.8755 56.9152 71.6189 56.6583 70.6395 55.9099C69.7765 55.2447 69.2517 54.3078 69.0632 53.1011C68.884 51.9573 68.9487 50.8707 69.2554 49.8377C69.6786 48.4167 70.5046 47.611 71.7316 47.4207C73.7754 47.101 74.995 48.2134 75.3923 50.7561C75.4292 50.9982 75.4366 51.3567 75.4108 51.8335C75.3775 52.4026 75.298 52.7371 75.1724 52.8369L71.5893 53.2674C71.4692 53.2804 71.4156 53.3376 71.4323 53.4374C71.4526 53.5686 71.545 53.7645 71.7076 54.0232ZM58.9054 47.1121C59.2694 46.9107 60.1157 46.7055 61.4462 46.4967C63.6803 46.1475 65.3545 46.4376 66.4651 47.3671C67.2689 48.0379 67.7512 48.8824 67.9102 49.9006C68.1375 51.3604 67.6921 52.6798 66.5741 53.8606C66.5446 53.8975 66.5298 53.9271 66.5335 53.9474C66.5446 54.0214 67.0768 54.5536 68.1282 55.5459C69.1797 56.5382 69.7119 57.0741 69.7248 57.1517C69.7285 57.1776 69.7193 57.2016 69.6952 57.2219L66.4559 57.8483L63.2941 55.0968C63.2498 55.0506 63.198 55.0322 63.1352 55.0414C63.028 55.058 62.98 55.1116 62.9892 55.2022L63.3958 57.9777C63.4013 58.0147 63.3921 58.0424 63.368 58.0627L60.7496 58.7409C60.72 58.7243 60.7034 58.7021 60.6978 58.6762L58.8499 47.186C58.8462 47.1601 58.8647 47.1361 58.9072 47.1121H58.9054ZM65.2788 50.4401C65.3619 51.0037 65.2418 51.5175 64.9184 51.9794C64.5876 52.4617 63.6766 52.8054 62.9911 53.0143L62.9449 53.0216C62.8266 53.0401 62.7619 52.9995 62.7453 52.8978L62.215 48.9544C62.2002 48.8528 62.2593 48.7918 62.3924 48.7696C62.6418 48.729 63.2997 48.729 63.5547 48.7641C64.5599 48.9175 65.1346 49.4755 65.2788 50.4383V50.4401ZM73.4058 51.8612L71.4008 52.2381C71.2807 52.2566 71.2142 52.216 71.1976 52.1162C71.1274 51.6616 71.1662 51.2181 71.3177 50.7875C71.5191 50.2147 71.8794 49.8876 72.3969 49.8063C73.0787 49.6991 73.4816 50.0391 73.6054 50.8245C73.7052 51.4676 73.6386 51.8131 73.4058 51.8612ZM82.0318 51.7836L82.1999 53.4762C82.2129 53.6204 81.8747 53.7442 81.1818 53.8532C80.2375 54.001 79.7164 53.7571 79.6166 53.1214C79.5611 52.7648 79.6776 52.4617 79.9658 52.2123C80.2338 51.9831 80.6089 51.8298 81.093 51.754C81.7084 51.6579 82.0225 51.669 82.0318 51.7854V51.7836ZM112.93 43.5013L113.387 46.2454C113.403 46.3507 113.211 46.4339 112.812 46.4967C111.739 46.6649 111.132 46.2972 110.992 45.3935C110.914 44.9001 111.022 44.477 111.312 44.1259C111.624 43.7434 112.103 43.5031 112.746 43.4015C112.853 43.3849 112.914 43.4181 112.932 43.5013H112.93ZM90.2143 48.2707L90.691 51.7226C90.7095 51.8815 90.3732 52.0164 89.6802 52.1217C88.4588 52.3102 87.7584 51.8261 87.5755 50.673C87.3519 49.2612 88.152 48.4148 89.974 48.134C90.1163 48.1118 90.1958 48.158 90.2143 48.2707Z" fill="#4456A2"/>
<path d="M10.7159 49.7915L114.045 36.5126L120.703 0H0L10.7159 49.7915Z" fill="#EC1C24"/>
<path d="M35.0176 13.5913C33.4968 13.5691 32.7244 14.5928 32.7207 15.7108C32.7539 17.1355 34.0123 17.5587 34.5094 17.5975C35.0083 17.6419 36.5643 17.5143 36.8803 15.9104C37.1944 14.3009 35.7845 13.6467 35.0157 13.5913H35.0176ZM35.8399 19.6967C35.3096 19.3548 34.6074 19.292 34.1454 19.2384C32.133 19.2625 32.5691 20.2086 32.6467 20.386C32.7225 20.5634 32.6763 22.2745 32.6763 22.2745C32.6763 22.2745 32.5802 26.7187 32.5839 27.1437C32.5876 27.5706 32.4379 29.363 32.619 29.8749C32.7946 30.3868 32.9627 30.4681 33.7887 30.5901C34.6147 30.7176 35.5424 30.7176 35.6662 30.2685C35.7956 29.8139 35.5978 29.5645 35.5535 29.1857C35.4001 28.125 35.6218 24.5881 35.6644 23.6789C35.7105 22.7661 35.9415 21.0715 35.9803 20.8239C36.021 20.5708 36.4626 20.1032 35.8399 19.6949V19.6967Z" fill="white"/>
<path d="M46.6852 27.7258C46.615 26.2919 46.5947 22.5665 46.5947 22.5665C46.5947 22.5665 46.6557 21.0087 46.6668 20.8165C46.6852 20.6281 47.2156 19.9684 46.5319 19.5563C45.8426 19.1387 44.9131 19.4084 44.6932 19.438C44.4733 19.4639 44.259 19.1867 44.259 19.1867C44.259 19.1867 44.1462 19.0111 43.4422 18.5861C41.8844 17.7952 40.9106 18.0595 40.1474 18.3755C38.0704 19.4269 37.2166 22.7956 37.2166 22.7956C37.2166 22.7956 36.4405 26.0147 36.9394 27.5318C37.4421 29.0526 38.6691 29.8417 39.9829 30.2759C41.2912 30.7194 42.5164 30.2057 42.8084 30.0375C43.1059 29.8731 43.882 29.3667 43.882 29.3667C43.882 29.3667 43.9836 30.5198 43.9337 31.0631C43.882 31.599 44.3292 34.3709 42.9525 35.0731C41.5832 35.7716 40.3026 34.1935 40.1936 34.077C40.0864 33.9569 39.909 33.7463 40.0291 33.4007C40.1455 33.0588 40.103 32.7909 39.9534 32.6246C39.8 32.462 39.3768 32.1626 38.0556 32.6301C36.7436 33.1013 36.8212 33.5781 36.8581 33.9329C36.8932 34.2895 37.2462 35.1266 37.6342 35.4962C39.3472 37.4439 40.6278 37.7229 42.4887 37.6675C43.2962 37.6361 45.2827 36.6013 46.1032 35.28C46.4598 34.709 46.6298 34.0124 46.6945 33.3157C46.9014 31.0021 46.7573 29.1561 46.6871 27.7295L46.6852 27.7258ZM43.7027 25.5823C43.6843 26.6522 42.3205 28.1712 40.9069 28.0769C39.9681 28.0178 39.6965 26.5875 39.8295 24.9595C39.9644 23.3315 40.7572 20.6853 42.2226 20.9015C42.2226 20.9015 43.1373 20.9681 43.5142 22.1637C43.6066 22.3965 43.7914 25.3808 43.7027 25.5823Z" fill="white"/>
<path d="M48.2615 10.788C48.2615 10.788 48.2725 10.2096 48.1635 10.0821C48.0526 9.95831 47.648 9.55731 48.1728 9.12306C48.6994 8.69619 50.1057 8.61304 50.7413 8.83294C51.3807 9.05838 51.5895 9.45198 51.5082 9.9657C51.4324 10.4757 51.4103 11.1724 51.3437 11.7286C51.2735 12.283 51.1165 14.8903 51.1165 14.8903L50.9243 20.1587L50.9668 21.1159C50.9668 21.1159 52.8479 19.1701 55.0026 19.4362C56.2037 19.6653 57.3734 20.5061 57.3734 20.5061C57.3734 20.5061 58.5173 21.0826 58.7649 23.5329C58.9478 25.3734 58.8647 27.2786 58.8647 27.2786C58.8647 27.2786 58.8905 29.1302 58.8092 29.5996C58.7279 30.0726 58.229 30.1521 58.229 30.1521C58.229 30.1521 57.5231 30.3886 56.3756 30.2611C55.2317 30.1373 55.4904 29.2189 55.6475 28.6572C55.7325 28.2303 55.7325 25.2127 55.6974 24.601C55.6641 23.9912 55.4276 21.8865 54.28 21.8994C53.1344 21.9086 52.3749 23.1209 52.0293 23.8009C51.6856 24.4791 51.4712 24.8228 51.3641 25.3254C51.2292 25.9869 51.2273 26.8333 51.1978 27.2269C51.1663 27.6131 51.1349 29.3095 51.3253 30.3554C51.5119 30.7675 51.6117 30.5402 51.6376 30.9282C51.6634 31.3107 51.2809 31.5195 49.7712 31.5177C48.2615 31.5214 48.3705 30.3314 48.3502 30.056C48.3224 29.7825 48.304 27.833 48.304 27.833L48.2079 22.2671L48.1395 17.4349L48.2615 13.1773L48.2578 10.7917L48.2615 10.788Z" fill="white"/>
<path d="M61.7105 8.89577C62.6307 8.96414 63.5011 9.3947 63.5399 10.0322C63.5417 10.509 63.3791 10.5552 63.3477 10.7677C63.3108 10.9654 63.2331 12.3292 63.1833 12.8687C63.1315 13.412 63.0742 17.847 63.0742 17.847L63.089 23.156L63.1796 27.0791L63.344 31.2405C63.344 31.2405 63.4364 31.7302 63.7118 32.1072C63.9945 32.4823 64.0019 32.7447 63.7524 32.9184C63.5048 33.0866 62.9282 33.3305 61.8731 33.2233C60.3892 33.0662 60.2488 32.3493 60.2654 32.0351C60.2802 31.7191 60.3209 30.2445 60.3209 30.2445L60.2747 25.8576C60.2747 25.8576 60.1878 20.5652 60.1527 19.839C60.1194 19.1109 60.1693 14.6372 60.1693 14.6372C60.1693 14.6372 60.1361 10.9395 60.1324 10.6291C60.1324 10.3223 59.8423 10.1634 59.9051 9.60351C59.9679 9.05099 60.7828 8.8237 61.7086 8.89762L61.7105 8.89577Z" fill="white"/>
<path d="M65.835 16.62C66.6591 16.7105 67.705 16.5867 68.0155 15.0936C68.3777 13.3178 67.0065 12.878 66.1288 12.8817C64.3991 12.8909 64.1552 14.2657 64.2273 15.2063C64.2994 16.1469 65.0126 16.5276 65.8331 16.6181L65.835 16.62ZM68.0303 28.7329C67.9046 28.4908 67.8178 28.1933 67.7623 27.5854C67.7106 26.9737 67.6256 24.468 67.6533 23.7787C67.6773 23.0894 67.7863 21.3598 67.8288 20.8202C67.8713 20.2751 68.2686 19.5101 67.8806 19.0721C67.4981 18.6379 66.2433 18.3755 65.5615 18.4032C64.8778 18.4272 64.3733 18.527 64.3363 18.9668C64.2975 19.4029 64.4768 19.8205 64.4768 19.8205C64.4768 19.8205 64.5895 20.5837 64.5765 21.2268C64.5618 21.868 64.6061 25.2774 64.6061 25.2774C64.6061 25.2774 64.6061 28.3874 64.6357 28.7348C64.6671 29.0822 64.3197 29.6439 66.2858 29.7493C68.252 29.8583 68.1559 28.9824 68.0303 28.7329Z" fill="white"/>
<path d="M93.2873 19.475C93.2873 19.475 93.5146 19.4602 93.5515 19.1701C93.5996 18.7543 94.1577 13.8537 94.1577 13.8537C94.1577 13.8537 94.0985 12.5731 94.9338 12.3754C95.7672 12.1813 96.3493 12.1813 96.996 12.4585C97.6428 12.7338 97.8553 13.4453 97.543 13.9073C97.2325 14.3692 97.0588 15.6055 96.9886 15.9381C96.9129 16.2726 96.5562 18.9742 96.5562 18.9742L96.5433 19.1183L98.1528 19.0536C98.1528 19.0536 99.3558 18.7746 99.8603 19.2089C100.357 19.6468 100.666 19.9259 100.686 20.3952C100.708 20.859 100.677 21.2212 100.154 21.236C99.6311 21.2508 97.5171 21.3709 97.5171 21.3709C97.5171 21.3709 96.4989 21.4263 96.4232 21.5317C96.3456 21.6407 96.1996 24.1206 96.2051 25.7744C96.2125 27.4302 97.1438 28.0252 97.6576 27.8958C98.1657 27.7665 98.6813 26.7926 98.9363 26.6485C99.1895 26.5025 99.3077 26.3362 100.134 27.0495C100.921 27.7277 100.823 28.1379 100.315 28.8641C100.106 29.1616 98.9603 30.3886 96.7041 29.9045C93.6587 29.2522 93.2836 27.517 93.2097 26.5986C93.1339 25.6691 93.1764 24.2093 93.2485 23.7528C93.3169 23.2983 93.3852 22.1526 93.3242 21.8809C93.3021 21.759 92.4594 22.0639 91.6611 21.7978C90.8647 21.5317 90.7317 20.8757 90.7095 20.6003C90.6818 20.3232 90.606 19.8778 90.8481 19.7854C91.0975 19.6893 93.2873 19.475 93.2873 19.475Z" fill="white"/>
<path d="M83.1941 20.9182C83.1941 20.9182 84.9533 18.9502 87.3667 19.4676C89.9962 20.0349 90.6485 22.1359 90.6836 23.7344C90.715 25.3402 90.5986 27.7295 90.5949 28.1915C90.5949 28.6553 90.4508 29.6014 90.4508 29.6014C90.4508 29.6014 90.4249 30.1613 88.8745 30.0191C87.5958 29.9008 87.3149 29.9803 87.2318 29.3612C87.1394 28.7422 87.374 28.6294 87.4572 27.1604C87.5367 25.6784 87.5866 24.9133 87.5866 24.9133C87.5866 24.9133 87.7436 22.0121 86.7254 21.8218C85.528 21.5982 84.471 22.8696 84.1698 23.2632C83.863 23.6586 83.4399 24.4199 83.329 25.9962C83.2163 27.5761 83.2107 28.635 83.2107 28.635C83.2107 28.635 83.1128 29.5903 83.1978 29.7123C83.2791 29.8287 83.693 30.3295 83.1461 30.6695C82.5917 31.0114 81.6142 31.0151 80.8307 30.725C80.0453 30.4367 80.1248 30.0283 80.097 29.3335C80.0712 28.6387 80.2966 24.3091 80.2966 24.3091L80.4426 16.049L80.5701 10.7825C80.5701 10.7825 80.6311 10.1856 80.4463 9.74026C80.2652 9.29861 80.3557 8.42641 82.1149 8.6075C84.0312 8.79783 84.0589 9.18589 83.9647 9.68852C83.8667 10.1874 83.7836 9.94538 83.7282 10.4979C83.6746 11.043 83.3327 16.2726 83.3327 16.2726L83.1867 20.9182H83.1941Z" fill="white"/>
<path d="M78.8829 31.368C78.8367 30.1761 78.8201 27.3174 78.8201 27.3174L78.761 24.4643C78.761 24.4643 78.8404 21.7701 78.8755 21.3635C78.9069 20.9607 79.0326 20.689 79.2229 20.3564C79.4151 20.0293 78.7055 19.6505 78.0699 19.5359C77.4323 19.4195 77.0055 19.5378 76.7893 19.6413C76.6266 19.7207 76.2829 19.3401 76.2829 19.3401C76.2829 19.3401 75.6085 18.8042 74.339 18.5991C71.7149 18.1851 70.4898 19.7928 69.5437 22.803C68.4996 26.3621 69.0004 27.687 69.4217 28.4576C69.8449 29.2245 71.423 30.4515 72.9586 30.6695C74.4997 30.8931 75.917 29.8121 75.9004 29.8287C76.0353 30.5753 75.9429 33.1457 75.9429 33.1457C75.9429 33.1457 75.8856 34.8957 74.5699 35.0897C73.2542 35.2874 72.8828 33.846 72.698 33.4451C72.5114 33.0385 72.6056 32.765 72.6463 32.3308C72.6888 31.8984 72.3284 31.7542 71.7648 31.7468C71.2049 31.7413 70.0851 31.9446 69.6508 32.4989C69.2166 33.0551 69.4199 33.2603 69.5289 33.4949C69.6379 33.7278 69.8153 34.0623 70.0001 34.4522C70.6247 36.2723 72.6223 37.455 74.0377 37.3903C75.4532 37.3293 76.9038 36.8008 77.8536 35.7254C78.8016 34.6443 78.9365 32.5599 78.8829 31.3717V31.368ZM75.7008 26.1717C75.5937 26.5783 74.7751 28.0917 73.4594 28.2654C72.1455 28.4262 71.8018 26.4452 72.1547 24.4865C72.5058 22.5332 73.5074 21.0161 74.2133 21.0715C74.9192 21.127 75.7822 21.5964 75.8247 23.0562C75.8653 24.516 75.821 25.6266 75.7008 26.1717Z" fill="white"/>
<path d="M7.05525 14.3397C7.05525 14.3397 6.3087 15.0437 6.27729 15.6018C6.24587 16.1561 6.77067 16.5849 7.22525 17.263C7.28808 17.3831 8.56313 19.0204 9.80492 20.2492C11.0486 21.4781 13.7225 23.0081 14.7074 23.3519C14.7647 23.4036 14.7148 23.6087 14.7148 23.6087C14.7148 23.6087 14.5559 25.4732 14.3286 27.3452C14.1068 29.2189 14.0292 30.1392 14.0292 30.1392C14.0292 30.1392 13.7557 32.4934 15.0844 32.9147C15.611 33.0773 16.2171 33.3065 17.1946 33.0348C18.1685 32.7613 17.8599 32.2402 17.8599 32.2402C17.8599 32.2402 17.6474 31.8817 17.4275 31.3847C17.2039 30.8913 17.5384 27.5577 17.5384 27.5577L17.6806 25.8557L17.8451 24.4255C17.8451 24.4255 17.7804 24.3479 18.1131 24.4033C18.4494 24.4624 20.9884 24.6287 20.9884 24.6287C20.9884 24.6287 22.9305 24.7267 24.7747 24.4015C25.3642 24.2684 26.2068 24.0042 26.2068 24.0042C26.2068 24.0042 26.2863 24.0042 26.2752 24.3645C26.2604 24.7267 26.4286 26.1939 26.4397 26.7058C26.4526 27.2195 26.5727 29.0027 26.5986 29.3279C26.6282 29.655 26.7538 31.1112 26.7538 31.1112C26.7538 31.1112 26.885 33.0034 27.2731 33.4487C27.6611 33.8885 28.7477 33.774 28.7477 33.774C28.7477 33.774 29.1727 33.7943 29.9451 33.421C30.7212 33.0496 30.4404 32.3918 30.4404 32.3918C30.4404 32.3918 30.3886 32.2753 30.226 32.0665C30.0634 31.8485 29.947 31.1444 29.8786 30.579C29.8102 30.0172 29.716 29.012 29.716 29.012L29.4905 25.9056L29.3427 24.006C29.3427 24.006 29.2984 22.7236 29.3797 22.5979C29.4591 22.4741 30.1281 22.001 30.1281 22.001C30.1281 22.001 31.4678 20.859 31.7246 20.1014C31.976 19.3438 31.8669 18.9335 31.8669 18.9335C31.8669 18.9335 31.7579 18.1186 31.1518 17.6123C30.9411 17.4275 30.5568 17.5809 30.4348 17.7989C30.3129 18.0151 30.2426 18.1944 30.1613 18.2979C30.0819 18.4032 29.6051 18.9409 29.5478 18.9945C29.4942 19.0463 29.3945 19.2144 29.3224 19.135C29.254 19.0629 29.1764 17.5254 29.1838 17.2686C29.1893 17.0191 29.0914 14.2657 29.0914 14.2657C29.0914 14.2657 29.1117 12.3476 29.0914 11.7526C29.0729 11.1557 29.23 8.59456 29.2706 8.26748C29.3168 8.10672 29.4647 8.11965 29.5478 7.60039C29.6347 7.07929 28.6923 6.59514 27.5262 6.48981C26.8924 6.43437 26.4674 6.43807 26.1773 6.60992C25.8465 6.79841 25.8373 7.10146 25.8225 7.29734C25.7855 7.65583 26.0073 7.87388 26.0424 8.26933C26.0793 8.65739 25.9925 9.42057 25.9925 9.42057L26.0054 10.7936V13.2439L26.0331 16.7198L26.0978 19.0795C26.0978 19.0795 26.1754 20.9089 26.1957 20.9829C26.2142 21.0586 26.1865 21.1067 26.1422 21.1399C26.1034 21.1769 24.9484 21.8828 21.7035 21.9216C20.1291 21.9068 18.7543 21.6961 18.2128 21.4688C18.2147 21.3635 18.3847 19.9628 18.3847 19.9628C18.3847 19.9628 19.0795 14.8996 19.3086 13.7945C19.5359 12.695 19.8131 10.9248 20.0201 10.0211C20.227 9.11567 20.5061 8.81631 20.5966 8.67587C20.6946 8.53728 21.1048 7.75377 20.0829 7.40082C18.6212 7.3306 17.6659 7.86464 17.6659 7.86464C17.6659 7.86464 16.8158 8.31553 16.8861 8.98816C16.9581 9.65895 16.8805 10.1376 16.8565 10.2891C16.8288 10.4425 16.5553 11.2888 16.3539 12.5491C16.1506 13.8112 16.0194 14.822 16.0194 14.822L15.648 17.0764L15.3098 19.0869L15.101 20.4322C15.101 20.4322 14.007 20.2178 12.0316 18.2923C10.0599 16.3631 9.3799 15.1306 9.18033 14.6353C9.15261 14.5355 9.21174 14.0052 8.38573 13.8352C7.53201 13.7373 7.04786 14.3415 7.04786 14.3415L7.05525 14.3397Z" fill="white"/>
<path d="M107.858 17.1633C107.858 17.1633 109.774 17.2427 111.016 18.6434C111.897 19.8889 111.973 21.2434 111.973 21.2434C111.973 21.2434 111.925 21.6814 111.101 21.7534C110.277 21.8236 109.628 22.0232 109.031 21.3303C108.436 20.641 108.531 19.717 107.681 19.8649C106.825 20.0164 105.317 20.9052 105.206 21.8015C105.103 22.6774 106.755 23.1338 107.906 23.5071C109.615 24.0577 112.317 24.3885 111.921 26.6762C111.528 28.9695 108.41 29.8749 105.919 29.583C105.337 29.5201 104.805 29.4555 104.319 29.3261C102.569 28.8697 101.499 28.1453 101.486 27.2121C101.3 26.3824 102.883 25.9241 103.395 25.9444C103.903 25.9611 103.861 25.9149 104.351 26.5173C104.838 27.1216 105.33 27.2176 106.515 27.3193C107.699 27.4228 108.257 26.9608 108.257 26.9608C108.257 26.9608 108.828 26.5302 107.973 26.1514C107.115 25.7818 102.826 24.8875 102.122 23.4221C101.416 21.9511 101.941 20.2326 103.024 19.2902C104.112 18.3441 105.317 17.0099 107.854 17.1651L107.858 17.1633Z" fill="white"/>
<path d="M109.896 12.5971H109.408V13.8962H108.976V12.5971H108.486V12.2349H109.896V12.5971ZM112.014 13.8962H111.602V12.769H111.594L111.18 13.8962H110.933L110.517 12.769H110.508V13.8962H110.098V12.2349H110.682L111.055 13.1773L111.43 12.2349H112.014V13.8962Z" fill="white"/>
</g>
<defs>
<clipPath id="clip0_1_3">
<rect width="127.276" height="64" fill="white"/>
</clipPath>
</defs>
</svg>
